<svg width="28" height="28" viewBox="0 0 28 28" fill="none" xmlns="http://www.w3.org/2000/svg">
<path d="M13.1087 12.9502C13.1087 12.9552 13.1061 13.0063 13.1024 13.0897C13.0854 13.4956 13.0405 14.6744 13.0257 15.0947C12.9901 16.1104 12.8985 17.1228 12.751 18.1319C12.7455 18.1802 12.733 18.2277 12.714 18.2731C12.701 18.3023 12.6805 18.3284 12.6543 18.3492C12.5687 18.4143 12.4448 18.3949 12.3348 18.3626C12.321 18.3589 12.3077 18.3552 12.2947 18.3509L11.4919 18.0932L7.98615 16.9811C7.40198 16.7959 5.07904 16.4177 4.99156 16.1487C4.38367 14.2853 3.75466 12.0804 3.6846 10.1255C3.63086 8.6236 3.74947 7.02486 4.13273 5.5613C4.40258 4.52963 4.7017 3.49862 5.16503 2.52169C5.60797 1.58715 6.17101 0.542791 7.283 0.14027C7.87606 -0.0746757 8.59477 -0.0536485 9.11593 0.280451C9.50179 0.527772 9.74976 0.921949 9.8706 1.33515C10.0852 2.06076 10.0189 2.88483 10.1178 3.63346C10.2142 4.36775 10.3295 5.10203 10.4722 5.82898C10.6204 6.58863 10.8037 7.34216 11.0219 8.08957C11.2443 8.84322 11.5011 9.58785 11.8036 10.3185C12.1015 11.0431 12.4472 11.751 12.8389 12.4385C12.8922 12.5313 12.9501 12.6221 13.009 12.7126C13.0546 12.7833 13.1176 12.8621 13.1087 12.9502Z" fill="white"/>
<path fill-rule="evenodd" clip-rule="evenodd" d="M25.7328 22.7126C25.6817 22.6777 25.6163 22.62 25.5512 22.5624C25.4293 22.3357 25.2693 22.1254 25.0959 21.945C24.7264 21.5608 24.2667 21.2551 23.806 20.96C22.9353 20.4016 22.0535 19.8659 21.1268 19.3857C20.7795 19.2071 20.4244 19.0225 20.1123 18.842C19.7517 18.633 19.4036 18.4134 19.0645 18.1858C18.792 18.0035 18.5255 17.8156 18.2624 17.6247L18.2468 17.6134C18.1915 17.5731 18.1345 17.5311 18.0804 17.4912L18.0274 17.4522C17.9882 17.4233 17.9509 17.3954 17.9125 17.3667C17.8834 17.345 17.8537 17.3228 17.822 17.2993C17.7845 17.2715 17.7475 17.2435 17.7105 17.2154C17.6751 17.1885 17.6395 17.1616 17.6033 17.1347C17.287 16.8948 16.9731 16.6518 16.6596 16.4091L16.5169 16.2987C15.806 15.7486 15.2926 15.0257 15.1729 14.2186C15.1238 13.888 15.1423 13.552 15.2274 13.2273C15.2622 13.0918 15.3823 12.6753 15.3823 12.6753C15.3823 12.6753 14.8953 12.7317 14.7344 12.7721C13.5939 13.0585 12.549 14.02 12.1609 15.0046C11.8295 15.8427 11.9922 16.8824 12.3855 17.6978C12.5627 18.0616 12.7968 18.4006 13.0809 18.7044C13.1066 18.7323 13.1326 18.76 13.159 18.7874C12.7724 18.5466 12.4305 18.3325 12.2642 18.2251L12.2641 18.225C12.2107 18.19 12.1752 18.1667 12.1622 18.1567C12.1318 18.133 12.1003 18.1086 12.0673 18.0839C11.7261 17.8373 11.3701 17.6078 11.0009 17.3963L10.9598 17.3723L10.7411 17.2468C9.75514 16.6864 8.32068 16.3643 7.15495 16.366C5.98921 16.3677 5.32202 16.5092 4.5566 17.3005C4.38601 17.4706 4.2706 17.6796 4.223 17.9047C4.22175 17.9092 4.22088 17.9137 4.22041 17.9183C4.21374 17.9677 4.20336 18.1186 4.19743 18.2681C4.19779 18.2722 4.19779 18.2764 4.19743 18.2805V18.3032C4.19224 18.4764 4.1952 18.6376 4.22226 18.6266L4.27378 18.6069L4.28268 18.6042C4.53726 18.5177 4.81169 18.4892 5.08146 18.5215C5.51884 18.5672 5.95177 18.7421 6.28537 18.9757C6.45875 19.0938 6.62492 19.2203 6.78317 19.3545C6.9889 19.5327 7.18308 19.7234 7.37761 19.9145L7.39439 19.931C7.4663 20.0028 7.53932 20.074 7.61345 20.1446C7.63047 20.161 7.64781 20.1774 7.66504 20.1937C7.67409 20.2023 7.6831 20.2108 7.69204 20.2193C7.74245 20.2667 7.79286 20.3135 7.84401 20.3598L7.90887 20.4189L7.93408 20.4409C7.9667 20.47 8.0008 20.4987 8.03453 20.5267C9.54016 21.7804 11.0832 23.0039 12.8535 23.9458C12.9165 23.9792 12.9795 24.0126 13.0433 24.046C13.0959 24.0733 13.1489 24.1004 13.2016 24.1271L13.4014 24.2272L13.5344 24.2919L13.5481 24.2983L13.6831 24.365C13.7546 24.3984 13.8261 24.4318 13.8984 24.4652H13.9003C14.337 24.6627 14.7849 24.8396 15.2421 24.9952C15.3188 25.0209 15.3955 25.0463 15.4722 25.0703L15.6268 25.118L15.7814 25.1634C15.8538 25.1841 15.927 25.2041 16.0012 25.2235L16.0924 25.2475L16.2484 25.2862C16.7105 25.3985 17.1829 25.4726 17.6599 25.5075L17.7893 25.5162C18.6358 25.5738 19.4857 25.5825 20.3335 25.5422H20.3498C21.2944 25.4957 22.2312 25.3631 23.1461 25.1464L23.1595 25.1432C23.6456 25.0263 24.1587 24.9029 24.6166 24.6999C25.1581 24.6913 25.6913 24.6885 26.2392 24.7683C26.3537 24.7861 26.4676 24.8062 26.581 24.8288L26.5767 24.8331C26.5781 24.835 26.5887 24.8389 26.5995 24.843L26.5996 24.843L26.5996 24.8431C26.6113 24.8475 26.6234 24.852 26.6247 24.8543C26.8262 24.9872 27.0195 25.1299 27.2037 25.2818C27.2245 25.3018 27.2498 25.3175 27.2779 25.3279C27.3076 25.3339 27.3385 25.3339 27.3683 25.3279L27.6363 25.2905C27.7416 25.2757 27.8038 25.1142 27.8427 25.0134C27.8485 24.9983 27.8538 24.9845 27.8587 24.9727C27.8861 24.9016 27.9077 24.8289 27.9281 24.7561C27.9297 24.7515 27.9312 24.7472 27.9323 24.743C27.948 24.6964 27.9611 24.6492 27.9714 24.6015C27.9777 24.5781 27.9823 24.5544 27.9851 24.5305L27.9858 24.5235C27.9924 24.4799 27.9969 24.436 27.9991 24.3919C28.0017 24.1613 27.9552 23.9325 27.8619 23.7177L27.8486 23.6843C27.8385 23.6456 27.8167 23.6102 27.7856 23.5819C27.7545 23.5536 27.7154 23.5336 27.6725 23.5241L26.9409 23.2518L26.9378 23.2494C26.9079 23.244 26.8842 23.24 26.8642 23.2367C26.836 23.2319 26.8151 23.2284 26.7944 23.2239C26.7352 23.2113 26.6775 23.1912 26.4548 23.1138L26.4126 23.0991C26.1773 23.0165 25.9545 22.8641 25.7837 22.7473L25.7837 22.7473L25.7328 22.7126Z" fill="white"/>
<path d="M13.2661 18.8578C13.2168 18.8244 12.9432 18.6612 12.8417 18.6041C12.646 18.4936 11.8687 17.9192 10.9365 17.506C10.0888 17.1299 9.2948 16.7604 8.32515 16.5822C7.16572 16.3689 4.92506 16.4066 4.44468 17.6712C4.19189 18.3358 4.48175 19.1398 4.87799 19.7553C4.94211 19.8554 5.00883 19.9495 5.07666 20.0376C5.90435 21.116 7.31732 21.7065 8.02417 22.8603C8.71121 23.9742 8.90531 25.2807 8.56756 26.518C8.46674 26.8882 8.2588 27.749 7.85552 27.9592C7.84885 27.9629 7.84292 27.9659 7.83625 27.9689C7.82957 27.9719 7.81771 27.9773 7.80882 27.9806C7.77445 27.9936 7.73749 28.0002 7.70021 27.9999C7.66292 27.9996 7.62609 27.9925 7.59198 27.9789L7.58679 27.9766C7.41777 27.9062 7.31954 27.6969 7.23318 27.488C7.22095 27.4596 7.21094 27.4349 7.20241 27.4169C7.15645 27.3201 7.09863 27.22 7.04266 27.1232C6.99966 27.0484 6.95518 26.971 6.91515 26.8942C6.59156 26.2717 5.93252 25.7544 4.95731 25.3589C4.55143 25.192 4.09737 25.0765 3.65999 24.9637C3.20741 24.8469 2.73926 24.7264 2.31189 24.5508C0.91486 23.9754 0.0434315 22.7709 0.00154656 21.3894C-0.00117164 21.2966 -0.000306755 21.2039 0.0041412 21.1114C0.0445434 20.2509 0.385183 19.4092 0.906334 18.6832C1.66508 17.6282 2.86418 16.6472 4.15075 16.1446C4.81858 15.8745 5.54455 15.7411 6.2765 15.7538C7.24022 15.7664 8.24101 15.8759 9.12133 16.23C9.48582 16.3765 9.8204 16.5211 10.1251 16.6639H10.1273C10.2659 16.7285 10.3989 16.7925 10.5261 16.8562C12.0729 17.6279 13.3602 18.9222 13.2661 18.8578Z" fill="white"/>
<path d="M13.266 18.858C13.2167 18.8246 12.9432 18.6614 12.8416 18.6043C12.6459 18.4938 11.8686 17.9194 10.9364 17.5062C10.0887 17.13 9.29474 16.7606 8.32508 16.5823C7.16565 16.3691 4.92499 16.4068 4.44461 17.6714C4.19182 18.3359 4.48168 19.14 4.87792 19.7555C4.94204 19.8556 5.00876 19.9497 5.07659 20.0378C5.90428 21.1162 7.31725 21.7066 8.0241 22.8605C8.71114 23.9744 8.90524 25.2809 8.5675 26.5182C8.46668 26.8884 8.25873 27.7491 7.85545 27.9594C7.84878 27.9631 7.84285 27.9661 7.83618 27.9691C7.82951 27.9721 7.81765 27.9774 7.80875 27.9808C7.77438 27.9938 7.73742 28.0004 7.70014 28.0001C7.66285 27.9998 7.62603 27.9927 7.59191 27.9791L7.58672 27.9768C7.58672 27.9768 7.74759 27.7548 7.81616 27.6363C8.03856 27.2528 8.15606 26.7629 8.22389 26.3346C8.29506 25.8781 8.35955 25.3233 8.27393 24.8694C8.15495 24.2383 8.0949 23.7907 7.69718 23.1892C7.37248 22.6993 6.83835 22.2584 6.27754 21.9046C5.45319 21.3839 4.66219 20.6636 4.16476 19.8749C3.62953 19.0262 3.32002 17.9144 4.038 17.0319C4.41125 16.573 4.86124 16.3143 5.46542 16.1565C6.1037 15.9896 6.69787 15.9739 7.29167 15.9822C7.71682 15.9886 8.13938 16.058 8.55193 16.1531C8.9493 16.2403 9.33769 16.3579 9.71284 16.5046C9.79365 16.5356 10.0008 16.618 10.1235 16.6654H10.1258C10.2644 16.73 10.3973 16.7941 10.5246 16.8577C12.0729 17.628 13.3602 18.9224 13.266 18.858Z" fill="#FAC300"/>
<path d="M26.7923 16.3653C26.7996 16.4001 26.7974 16.436 26.7857 16.4698C26.7741 16.5036 26.7534 16.5343 26.7256 16.5593C26.2816 16.9617 25.7539 17.2812 25.1725 17.4995C24.8019 17.6364 24.4108 17.723 24.012 17.7565C23.7154 17.7815 23.4166 17.7732 23.1224 17.7318C22.1586 17.5956 21.3184 17.1006 20.6949 16.3009C20.4725 16.0156 20.2779 15.7082 20.0889 15.4108C19.7605 14.8934 19.4217 14.3587 18.9365 13.9422C18.7033 13.7423 18.4445 13.5682 18.1655 13.4235C17.5172 13.0881 16.7451 12.9079 15.8841 12.9516C15.4178 12.9756 14.7539 13.0874 14.2213 13.2834C13.7765 13.4472 13.1905 13.7506 12.8154 14.1208C12.2041 14.7266 12.074 15.4892 12.097 16.1354C12.1489 17.5769 13.2186 18.7975 13.2631 18.8516C13.0778 18.6687 12.941 18.5846 12.7712 18.3876C12.5088 18.0842 11.8772 17.1036 11.7 16.3296C11.6505 16.1181 11.6194 15.9034 11.607 15.6875C11.595 15.4851 11.6048 15.2821 11.6363 15.0813C11.7616 14.3237 12.2064 13.5484 12.9581 12.7784C13.0993 12.6328 13.2546 12.4833 13.434 12.3204C14.3833 11.4593 15.3711 10.5772 16.6035 10.0465C17.8267 9.52014 18.9335 9.38663 20.2824 9.53549C20.9922 9.61393 21.9589 9.86225 22.5701 10.2768C22.6314 10.3184 22.6902 10.3629 22.7461 10.4103C23.3818 10.9467 23.7269 11.5521 23.9486 12.2974C24.0294 12.5704 24.0946 12.8498 24.1573 13.1205C24.2711 13.6071 24.3878 14.1101 24.598 14.5717C24.7963 15.0056 25.0798 15.3771 25.4197 15.6431C25.5999 15.787 25.8068 15.9011 26.031 15.9802C26.2163 16.0443 26.4016 16.1137 26.6514 16.2081C26.6873 16.2222 26.7189 16.2438 26.7434 16.2713C26.768 16.2987 26.7847 16.3311 26.7923 16.3657V16.3653Z" fill="white"/>
<path d="M26.7922 16.3654C26.7996 16.4002 26.7973 16.436 26.7857 16.4698C26.774 16.5036 26.7534 16.5343 26.7255 16.5593C26.2816 16.9617 25.7538 17.2812 25.1725 17.4995C24.8019 17.6364 24.4107 17.723 24.0119 17.7565C23.7154 17.7815 23.4166 17.7732 23.1223 17.7318C22.1586 17.5956 21.3183 17.1007 20.6948 16.301C20.4724 16.0156 20.2778 15.7082 20.0888 15.4108C19.7604 14.8935 19.4216 14.3588 18.9364 13.9422C18.1714 13.2864 17.1202 12.8889 15.884 12.9516C15.4177 12.9757 14.7539 13.0875 14.2212 13.2834C13.7764 13.4473 13.1904 13.7507 12.8153 14.1208C12.2041 14.7266 12.0699 15.4185 12.0936 16.066C12.1459 17.5279 13.2475 18.8316 13.2642 18.8533C13.0788 18.6694 12.9417 18.5863 12.7712 18.3877C12.5088 18.0843 11.8771 17.1037 11.7 16.3297C11.6505 16.1181 11.6194 15.9034 11.6069 15.6875C11.6329 15.1511 11.7808 14.6318 12.0973 14.1722C12.4987 13.5929 13.0633 13.1197 13.7338 12.8008C14.5796 12.3929 15.5697 12.2207 16.5538 12.2848L16.5797 12.2864C16.9875 12.3148 17.35 12.3645 17.7288 12.5064C18.0819 12.6395 18.4175 12.8074 18.7296 13.007C19.3577 13.409 19.8866 13.9238 20.2827 14.519C20.7764 15.2593 21.0889 16.1338 21.8283 16.6831C22.4384 17.1367 23.2621 17.2936 24.0375 17.2375C24.2276 17.2238 24.4081 17.2282 24.5994 17.1991C25.2322 17.1021 25.8332 16.8794 26.3586 16.5473C26.4934 16.4625 26.6223 16.3704 26.7448 16.2716C26.769 16.2988 26.7853 16.3311 26.7922 16.3654Z" fill="#FAC300"/>
</svg>
