<svg width="176" height="32" viewBox="0 0 176 32" fill="none" xmlns="http://www.w3.org/2000/svg">
<path d="M53.226 15.267C53.226 17.5626 52.7448 19.5849 51.7826 21.3339C50.8203 23.0829 49.4206 24.4493 47.5835 25.4331C45.7683 26.395 43.6032 26.876 41.0881 26.876H32.854V3.72363H41.0881C43.6032 3.72363 45.7683 4.2046 47.5835 5.16655C49.4206 6.10664 50.8203 7.45118 51.7826 9.20018C52.7448 10.9273 53.226 12.9496 53.226 15.267ZM40.6944 22.744C43.1876 22.744 45.1122 22.0881 46.4681 20.7764C47.8459 19.4646 48.5349 17.6282 48.5349 15.267C48.5349 12.884 47.8459 11.0366 46.4681 9.72488C45.1122 8.41313 43.1876 7.75726 40.6944 7.75726H37.4795V22.744H40.6944Z" fill="white"/>
<path d="M70.7952 22.2193H61.5113L59.8711 26.876H54.9831L63.5124 3.98598H68.7941L77.2906 26.876H72.4026L70.7952 22.2193ZM69.5486 18.7104L66.1369 8.93783L62.7251 18.7104H69.5486Z" fill="white"/>
<path d="M90.6456 3.39569C92.8108 3.39569 94.7681 3.89853 96.5177 4.9042C98.2892 5.90988 99.678 7.32001 100.684 9.13459C101.712 10.9273 102.226 12.9605 102.226 15.2342C102.226 17.5079 101.712 19.5521 100.684 21.3666C99.678 23.1812 98.2892 24.5914 96.5177 25.597C94.7681 26.6027 92.8108 27.1055 90.6456 27.1055C88.4805 27.1055 86.5122 26.6027 84.7407 25.597C82.9911 24.5914 81.6023 23.1812 80.5744 21.3666C79.5684 19.5521 79.0654 17.5079 79.0654 15.2342C79.0654 12.9605 79.5684 10.9273 80.5744 9.13459C81.6023 7.32001 82.9911 5.90988 84.7407 4.9042C86.5122 3.89853 88.4805 3.39569 90.6456 3.39569ZM90.6456 7.65887C89.2897 7.65887 88.0978 7.96495 87.0699 8.5771C86.042 9.18925 85.2328 10.0747 84.6423 11.2334C84.0737 12.3702 83.7893 13.7038 83.7893 15.2342C83.7893 16.7646 84.0737 18.1091 84.6423 19.2679C85.2328 20.4047 86.042 21.2792 87.0699 21.8913C88.0978 22.5035 89.2897 22.8096 90.6456 22.8096C92.0016 22.8096 93.1935 22.5035 94.2214 21.8913C95.2493 21.2792 96.0475 20.4047 96.6162 19.2679C97.2066 18.1091 97.5019 16.7646 97.5019 15.2342C97.5019 13.7038 97.2066 12.3702 96.6162 11.2334C96.0475 10.0747 95.2493 9.18925 94.2214 8.5771C93.1935 7.96495 92.0016 7.65887 90.6456 7.65887Z" fill="white"/>
<path d="M111.33 18.284V26.876H106.704V3.72363H115.135C117.869 3.72363 119.925 4.3795 121.303 5.69125C122.702 7.003 123.402 8.78479 123.402 11.0366C123.402 13.2447 122.681 15.0047 121.237 16.3164C119.816 17.6282 117.782 18.284 115.135 18.284H111.33ZM114.643 14.5783C117.355 14.5783 118.711 13.3978 118.711 11.0366C118.711 9.87792 118.394 8.99249 117.76 8.38034C117.126 7.76819 116.087 7.46211 114.643 7.46211H111.33V14.5783H114.643Z" fill="white"/>
<path d="M135.805 8.47872C137.576 8.47872 139.162 8.85038 140.562 9.5937C141.983 10.337 143.099 11.4192 143.908 12.8403C144.717 14.2395 145.122 15.8901 145.122 17.7921C145.122 19.6942 144.717 21.3448 143.908 22.744C143.099 24.1432 141.983 25.2254 140.562 25.9906C139.162 26.7339 137.576 27.1055 135.805 27.1055C134.033 27.1055 132.437 26.7339 131.015 25.9906C129.616 25.2254 128.511 24.1432 127.702 22.744C126.893 21.3448 126.488 19.6942 126.488 17.7921C126.488 15.8901 126.893 14.2395 127.702 12.8403C128.511 11.4192 129.616 10.337 131.015 9.5937C132.437 8.85038 134.033 8.47872 135.805 8.47872ZM135.805 12.4796C134.515 12.4796 133.421 12.9387 132.524 13.8569C131.628 14.7532 131.179 16.065 131.179 17.7921C131.179 19.5193 131.628 20.8419 132.524 21.7602C133.421 22.6565 134.515 23.1047 135.805 23.1047C137.095 23.1047 138.189 22.6565 139.085 21.7602C139.982 20.8419 140.43 19.5193 140.43 17.7921C140.43 16.065 139.982 14.7532 139.085 13.8569C138.189 12.9387 137.095 12.4796 135.805 12.4796Z" fill="white"/>
<path d="M157.789 8.47872C159.56 8.47872 161.146 8.85038 162.545 9.5937C163.967 10.337 165.082 11.4192 165.891 12.8403C166.701 14.2395 167.105 15.8901 167.105 17.7921C167.105 19.6942 166.701 21.3448 165.891 22.744C165.082 24.1432 163.967 25.2254 162.545 25.9906C161.146 26.7339 159.56 27.1055 157.789 27.1055C156.017 27.1055 154.421 26.7339 152.999 25.9906C151.599 25.2254 150.495 24.1432 149.686 22.744C148.877 21.3448 148.472 19.6942 148.472 17.7921C148.472 15.8901 148.877 14.2395 149.686 12.8403C150.495 11.4192 151.599 10.337 152.999 9.5937C154.421 8.85038 156.017 8.47872 157.789 8.47872ZM157.789 12.4796C156.498 12.4796 155.405 12.9387 154.508 13.8569C153.611 14.7532 153.163 16.065 153.163 17.7921C153.163 19.5193 153.611 20.8419 154.508 21.7602C155.405 22.6565 156.498 23.1047 157.789 23.1047C159.079 23.1047 160.172 22.6565 161.069 21.7602C161.966 20.8419 162.414 19.5193 162.414 17.7921C162.414 16.065 161.966 14.7532 161.069 13.8569C160.172 12.9387 159.079 12.4796 157.789 12.4796Z" fill="white"/>
<path d="M176 2.60864V26.876H171.374V2.60864H176Z" fill="white"/>
<path d="M21.5283 21.0688C21.5283 27.1059 16.709 32 10.7642 32C4.81928 32 0 27.1059 0 21.0688C0 16.0585 7.41363 4.30687 9.93575 0.453904C10.3319 -0.151301 11.1964 -0.151301 11.5926 0.453904C14.1147 4.30687 21.5283 16.0585 21.5283 21.0688Z" fill="url(#paint0_linear_873_4266)"/>
<defs>
<linearGradient id="paint0_linear_873_4266" x1="3.76745" y1="32" x2="23.3202" y2="23.8011" gradientUnits="userSpaceOnUse">
<stop stop-color="#71EA9E"/>
<stop offset="1" stop-color="#7E3EB0"/>
</linearGradient>
</defs>
</svg>
