<svg width="21" height="16" viewBox="0 0 21 16" fill="none" xmlns="http://www.w3.org/2000/svg">
<path d="M17.7774 1.32631C16.4389 0.71242 15.0036 0.260131 13.5029 0.00108666C13.4756 -0.00391282 13.4483 0.00858115 13.4342 0.0335697C13.2496 0.361747 13.0451 0.789881 12.902 1.12639C11.2879 0.884845 9.68204 0.884845 8.10103 1.12639C7.95782 0.782401 7.74592 0.361747 7.5605 0.0335697C7.54642 0.00941489 7.51912 -0.00307908 7.49179 0.00108666C5.99192 0.259303 4.55662 0.711592 3.21732 1.32631C3.20572 1.33131 3.19579 1.33965 3.18919 1.35047C0.466718 5.4161 -0.279081 9.3818 0.0867826 13.2983C0.0884381 13.3175 0.0991986 13.3358 0.114098 13.3475C1.91031 14.666 3.65024 15.4665 5.35787 15.9971C5.3852 16.0054 5.41416 15.9954 5.43155 15.9729C5.83549 15.4215 6.19556 14.8401 6.50429 14.2287C6.52251 14.1929 6.50512 14.1504 6.46788 14.1363C5.89674 13.9197 5.3529 13.6557 4.82976 13.3558C4.78838 13.3317 4.78507 13.2725 4.82314 13.2442C4.93323 13.1617 5.04334 13.0759 5.14846 12.9893C5.16748 12.9735 5.19398 12.9701 5.21634 12.9801C8.65312 14.5486 12.3739 14.5486 15.7701 12.9801C15.7924 12.9693 15.8189 12.9726 15.8388 12.9885C15.9439 13.0751 16.054 13.1617 16.1649 13.2442C16.203 13.2725 16.2005 13.3317 16.1591 13.3558C15.636 13.6615 15.0922 13.9197 14.5202 14.1354C14.483 14.1496 14.4664 14.1929 14.4846 14.2287C14.8 14.8393 15.16 15.4207 15.5565 15.9721C15.5731 15.9954 15.6029 16.0054 15.6302 15.9971C17.3461 15.4665 19.086 14.666 20.8823 13.3475C20.898 13.3358 20.9079 13.3183 20.9096 13.2992C21.3474 8.77122 20.1762 4.83804 17.8047 1.3513C17.7989 1.33965 17.789 1.33131 17.7774 1.32631ZM7.01752 10.9136C5.98281 10.9136 5.13024 9.96403 5.13024 8.79789C5.13024 7.63175 5.96628 6.6822 7.01752 6.6822C8.07701 6.6822 8.92133 7.64009 8.90477 8.79789C8.90477 9.96403 8.06873 10.9136 7.01752 10.9136ZM13.9954 10.9136C12.9607 10.9136 12.1082 9.96403 12.1082 8.79789C12.1082 7.63175 12.9442 6.6822 13.9954 6.6822C15.0549 6.6822 15.8992 7.64009 15.8827 8.79789C15.8827 9.96403 15.0549 10.9136 13.9954 10.9136Z" fill="#5159E9"/>
</svg>
