<svg width="21" height="16" viewBox="0 0 21 16" fill="none" xmlns="http://www.w3.org/2000/svg">
<path d="M17.7774 1.42479C16.4389 0.820742 15.0036 0.375709 13.5029 0.12082C13.4756 0.115901 13.4483 0.128194 13.4342 0.152782C13.2496 0.475694 13.0451 0.89696 12.902 1.22807C11.2879 0.9904 9.68204 0.9904 8.10103 1.22807C7.95782 0.8896 7.74592 0.475694 7.5605 0.152782C7.54642 0.129015 7.51912 0.116721 7.49179 0.12082C5.99192 0.374894 4.55662 0.819927 3.21732 1.42479C3.20572 1.4297 3.19579 1.43791 3.18919 1.44855C0.466718 5.44896 -0.279081 9.35104 0.0867826 13.2047C0.0884381 13.2236 0.0991986 13.2416 0.114098 13.2531C1.91031 14.5505 3.65024 15.3381 5.35787 15.8602C5.3852 15.8684 5.41416 15.8586 5.43155 15.8364C5.83549 15.2939 6.19556 14.7218 6.50429 14.1202C6.52251 14.085 6.50512 14.0432 6.46788 14.0292C5.89674 13.8161 5.3529 13.5563 4.82976 13.2613C4.78838 13.2375 4.78507 13.1793 4.82314 13.1514C4.93323 13.0703 5.04334 12.9859 5.14846 12.9007C5.16748 12.8851 5.19398 12.8818 5.21634 12.8916C8.65312 14.4349 12.3739 14.4349 15.7701 12.8916C15.7924 12.881 15.8189 12.8843 15.8388 12.8998C15.9439 12.9851 16.054 13.0703 16.1649 13.1514C16.203 13.1793 16.2005 13.2375 16.1591 13.2613C15.636 13.5621 15.0922 13.8161 14.5202 14.0284C14.483 14.0424 14.4664 14.085 14.4846 14.1202C14.8 14.721 15.16 15.293 15.5565 15.8356C15.5731 15.8586 15.6029 15.8684 15.6302 15.8602C17.3461 15.3381 19.086 14.5505 20.8823 13.2531C20.898 13.2416 20.9079 13.2244 20.9096 13.2056C21.3474 8.75026 20.1762 4.88017 17.8047 1.44937C17.7989 1.43791 17.789 1.4297 17.7774 1.42479ZM7.01752 10.8582C5.98281 10.8582 5.13024 9.92393 5.13024 8.77649C5.13024 7.62906 5.96628 6.69475 7.01752 6.69475C8.07701 6.69475 8.92133 7.63727 8.90477 8.77649C8.90477 9.92393 8.06873 10.8582 7.01752 10.8582ZM13.9954 10.8582C12.9607 10.8582 12.1082 9.92393 12.1082 8.77649C12.1082 7.62906 12.9442 6.69475 13.9954 6.69475C15.0549 6.69475 15.8992 7.63727 15.8827 8.77649C15.8827 9.92393 15.0549 10.8582 13.9954 10.8582Z" fill="white"/>
</svg>
