<svg id="svg" version="1.1" xmlns="http://www.w3.org/2000/svg" xmlns:xlink="http://www.w3.org/1999/xlink" width="400" height="152.77660025434506" viewBox="0, 0, 400,152.77660025434506"><g id="svgg"><path id="path0" d="M40.648 78.233 C 40.612 78.265,39.796 78.340,38.833 78.400 C 37.871 78.460,36.858 78.539,36.583 78.577 C 36.308 78.614,35.446 78.728,34.667 78.830 C 32.885 79.063,30.190 79.614,29.302 79.928 C 28.930 80.059,28.527 80.167,28.407 80.167 C 28.287 80.167,27.977 80.254,27.719 80.361 C 27.169 80.589,27.211 80.575,26.625 80.740 C 26.373 80.811,26.167 80.936,26.167 81.018 C 26.167 81.100,26.064 81.167,25.939 81.167 C 23.911 81.167,16.772 86.515,14.925 89.417 C 14.575 89.967,14.234 90.454,14.166 90.500 C 13.247 91.122,10.452 98.687,9.917 102.000 C 9.850 102.412,9.739 102.825,9.671 102.917 C 9.538 103.094,9.518 103.199,9.420 104.250 C 9.385 104.617,9.343 104.954,9.326 105.000 C 9.308 105.046,9.298 105.124,9.302 105.174 C 9.307 105.223,9.190 106.048,9.042 107.007 C 8.809 108.522,8.766 111.519,8.714 129.959 L 8.653 151.167 44.285 151.125 L 79.917 151.083 79.967 131.667 C 80.022 110.209,79.886 106.130,79.010 102.886 C 78.931 102.595,78.903 102.320,78.947 102.276 C 78.991 102.231,78.954 102.058,78.865 101.889 C 78.776 101.721,78.660 101.321,78.609 101.000 C 78.504 100.343,78.372 99.750,78.332 99.750 C 78.318 99.750,78.285 99.600,78.259 99.417 C 78.192 98.936,78.096 98.596,78.000 98.500 C 77.954 98.454,77.657 97.629,77.339 96.667 C 76.839 95.155,74.973 91.076,74.670 90.833 C 74.613 90.787,74.386 90.450,74.167 90.083 C 73.947 89.717,73.726 89.379,73.675 89.333 C 73.624 89.287,73.250 88.813,72.844 88.279 C 72.114 87.318,69.226 84.500,68.972 84.500 C 68.899 84.500,68.295 84.134,67.628 83.686 C 66.962 83.238,65.742 82.545,64.917 82.144 C 64.092 81.744,63.392 81.360,63.361 81.292 C 63.331 81.223,63.124 81.167,62.903 81.167 C 62.681 81.167,62.500 81.098,62.500 81.013 C 62.500 80.884,61.297 80.402,60.618 80.259 C 60.507 80.236,60.304 80.173,60.167 80.119 C 59.752 79.958,57.068 79.339,55.699 79.089 C 54.187 78.814,53.186 78.682,50.500 78.407 C 49.452 78.300,40.746 78.146,40.648 78.233 M207.996 78.219 C 207.948 78.271,207.085 78.328,206.079 78.346 C 204.146 78.380,200.703 78.712,199.167 79.013 C 198.662 79.112,197.987 79.233,197.667 79.282 C 197.346 79.331,196.558 79.514,195.917 79.689 C 195.275 79.864,194.637 80.030,194.500 80.057 C 194.362 80.084,194.137 80.157,194.000 80.218 C 193.862 80.279,193.563 80.362,193.333 80.402 C 193.104 80.442,192.879 80.490,192.833 80.507 C 192.787 80.525,192.694 80.531,192.625 80.520 C 192.556 80.509,192.500 80.573,192.500 80.661 C 192.500 80.750,192.397 80.783,192.271 80.735 C 192.146 80.687,191.921 80.769,191.773 80.918 C 191.624 81.066,191.427 81.141,191.335 81.084 C 191.242 81.027,191.167 81.060,191.167 81.157 C 191.167 81.254,191.110 81.317,191.042 81.297 C 190.644 81.182,185.758 83.871,184.254 85.033 C 182.557 86.344,179.167 90.081,179.167 90.640 C 179.167 90.731,179.100 90.831,179.019 90.861 C 178.755 90.961,176.588 95.547,176.080 97.083 C 175.807 97.908,175.517 98.631,175.437 98.690 C 175.356 98.748,175.339 98.874,175.398 98.970 C 175.457 99.065,175.424 99.194,175.325 99.255 C 175.225 99.317,175.183 99.470,175.231 99.595 C 175.279 99.720,175.242 99.870,175.148 99.928 C 175.054 99.986,175.018 100.139,175.067 100.267 C 175.116 100.395,175.092 100.500,175.013 100.500 C 174.934 100.500,174.830 100.744,174.782 101.042 C 174.734 101.340,174.546 102.408,174.363 103.417 C 174.180 104.425,173.994 105.587,173.948 106.000 C 173.902 106.412,173.772 107.537,173.659 108.500 C 173.037 113.785,173.662 126.441,174.677 129.110 C 174.768 129.350,174.804 129.585,174.756 129.633 C 174.709 129.680,174.755 129.822,174.859 129.947 C 174.962 130.072,175.002 130.220,174.947 130.275 C 174.892 130.330,174.956 130.587,175.090 130.846 C 175.224 131.105,175.333 131.493,175.333 131.708 C 175.333 131.924,175.396 132.171,175.474 132.258 C 175.551 132.345,175.782 132.965,175.988 133.634 C 176.802 136.281,178.834 140.206,180.189 141.750 C 180.452 142.049,180.667 142.349,180.667 142.415 C 180.667 142.694,183.794 145.810,183.958 145.696 C 183.981 145.680,184.145 145.798,184.321 145.958 C 187.743 149.063,194.827 151.514,202.833 152.363 C 205.610 152.657,216.269 152.660,218.667 152.368 C 225.908 151.484,233.440 149.140,235.750 147.051 C 235.933 146.886,236.299 146.639,236.563 146.502 C 239.296 145.089,245.067 136.790,245.726 133.323 C 245.768 133.100,245.994 132.263,246.228 131.465 C 248.356 124.185,248.633 107.714,246.733 101.460 C 246.685 101.300,246.610 100.963,246.566 100.710 C 246.416 99.836,245.515 96.830,245.330 96.583 C 245.261 96.492,245.153 96.173,245.089 95.875 C 245.026 95.577,244.904 95.333,244.820 95.333 C 244.736 95.333,244.667 95.238,244.667 95.120 C 244.667 95.003,244.449 94.497,244.184 93.995 C 243.062 91.878,242.154 90.261,242.038 90.175 C 241.969 90.125,241.695 89.746,241.427 89.333 C 239.758 86.761,235.396 83.405,231.667 81.823 C 231.162 81.609,230.706 81.370,230.652 81.292 C 230.598 81.214,230.391 81.138,230.193 81.123 C 229.995 81.108,229.833 81.037,229.833 80.965 C 229.833 80.892,229.681 80.833,229.494 80.833 C 229.308 80.833,228.970 80.712,228.744 80.564 C 228.518 80.416,228.333 80.344,228.333 80.403 C 228.333 80.463,228.186 80.433,228.006 80.337 C 227.826 80.240,227.470 80.133,227.215 80.098 C 226.959 80.062,226.525 79.953,226.250 79.854 C 223.601 78.904,208.604 77.560,207.996 78.219 M112.563 80.208 C 112.494 80.414,112.422 80.658,112.404 80.750 C 112.386 80.842,111.603 82.942,110.665 85.417 C 109.728 87.892,108.822 90.292,108.653 90.750 C 108.484 91.208,108.075 92.258,107.745 93.083 C 107.414 93.908,107.136 94.677,107.127 94.792 C 107.118 94.906,107.057 95.000,106.990 95.000 C 106.848 95.000,106.597 95.823,106.647 96.125 C 106.666 96.240,106.612 96.333,106.526 96.333 C 106.441 96.333,106.244 96.727,106.088 97.208 C 105.932 97.690,105.706 98.308,105.587 98.583 C 105.265 99.324,104.851 100.420,104.325 101.917 C 104.068 102.650,103.413 104.412,102.871 105.833 C 102.328 107.254,101.604 109.167,101.263 110.083 C 99.055 116.012,97.663 119.649,97.441 120.071 C 97.299 120.340,97.222 120.621,97.268 120.696 C 97.315 120.772,97.266 120.833,97.159 120.833 C 97.052 120.833,97.004 120.936,97.052 121.062 C 97.100 121.187,97.009 121.506,96.849 121.770 C 96.689 122.034,96.514 122.400,96.459 122.583 C 96.404 122.767,96.123 123.517,95.835 124.250 C 95.546 124.983,95.133 126.071,94.917 126.667 C 94.700 127.263,94.287 128.350,93.998 129.083 C 93.709 129.817,93.336 130.829,93.169 131.333 C 93.002 131.837,92.292 133.750,91.590 135.583 C 90.888 137.417,90.010 139.742,89.639 140.750 C 88.248 144.526,87.794 145.671,87.656 145.756 C 87.578 145.805,87.557 145.954,87.608 146.089 C 87.660 146.223,87.615 146.333,87.508 146.333 C 87.401 146.333,87.360 146.408,87.417 146.500 C 87.473 146.592,87.448 146.667,87.361 146.667 C 87.215 146.667,87.033 147.138,86.889 147.890 C 86.857 148.059,86.719 148.357,86.582 148.552 C 86.445 148.748,86.333 149.043,86.333 149.210 C 86.333 149.376,86.229 149.678,86.101 149.881 C 85.973 150.084,85.818 150.419,85.756 150.625 L 85.644 151.000 101.197 150.999 L 116.750 150.998 117.042 150.484 C 117.203 150.202,117.293 149.902,117.241 149.819 C 117.189 149.735,117.226 149.667,117.323 149.667 C 117.421 149.667,117.500 149.523,117.500 149.347 C 117.500 149.171,117.605 148.815,117.734 148.555 C 117.997 148.027,118.246 147.348,119.496 143.750 C 119.974 142.375,120.689 140.350,121.085 139.250 L 121.805 137.250 131.098 137.250 L 140.391 137.250 141.034 139.000 C 141.388 139.962,142.023 141.762,142.445 143.000 C 143.308 145.530,143.747 146.778,144.501 148.833 C 144.787 149.612,145.062 150.419,145.113 150.625 L 145.206 151.000 160.769 151.000 L 176.333 151.000 176.333 150.583 C 176.333 150.354,176.254 150.167,176.157 150.167 C 176.060 150.167,176.018 150.105,176.065 150.030 C 176.112 149.954,176.034 149.673,175.892 149.405 C 175.613 148.877,173.351 143.009,173.005 141.917 C 172.889 141.550,172.695 141.025,172.574 140.750 C 172.454 140.475,171.633 138.300,170.752 135.917 C 169.871 133.533,169.088 131.433,169.014 131.250 C 168.939 131.067,168.712 130.467,168.509 129.917 C 167.766 127.905,167.636 127.574,167.403 127.111 C 167.273 126.852,167.167 126.576,167.167 126.497 C 167.167 126.419,167.101 126.181,167.020 125.969 C 166.939 125.757,166.861 125.508,166.845 125.417 C 166.830 125.325,166.706 125.081,166.571 124.875 C 166.436 124.669,166.366 124.500,166.416 124.500 C 166.466 124.500,166.358 124.209,166.177 123.854 C 165.996 123.499,165.894 123.161,165.952 123.104 C 166.009 123.047,165.983 123.000,165.895 123.000 C 165.806 123.000,165.636 122.719,165.516 122.375 C 165.131 121.268,164.144 118.606,163.832 117.833 C 163.666 117.421,163.153 116.071,162.693 114.833 C 162.232 113.596,161.019 110.333,159.996 107.583 C 158.973 104.833,157.993 102.269,157.818 101.884 C 157.643 101.500,157.500 101.105,157.500 101.007 C 157.500 100.909,157.434 100.699,157.354 100.539 C 157.273 100.380,157.113 99.950,156.997 99.583 C 156.881 99.217,156.544 98.392,156.249 97.750 C 155.953 97.108,155.285 95.421,154.764 94.000 C 154.244 92.579,153.603 90.854,153.340 90.167 C 153.077 89.479,152.340 87.529,151.703 85.833 C 151.066 84.137,150.331 82.188,150.069 81.500 C 149.808 80.813,149.591 80.175,149.589 80.083 C 149.585 79.974,143.291 79.902,131.136 79.874 L 112.690 79.832 112.563 80.208 M212.612 86.067 C 213.771 86.375,214.749 87.187,215.120 88.149 C 215.580 89.340,215.580 141.661,215.120 142.852 C 213.891 146.035,207.475 146.012,206.444 142.821 C 206.109 141.783,206.009 90.083,206.340 88.543 C 206.798 86.408,209.656 85.280,212.612 86.067 M131.564 112.502 C 131.796 113.188,132.295 114.612,132.672 115.667 C 133.049 116.721,133.455 117.883,133.573 118.250 C 133.692 118.617,133.904 119.217,134.045 119.583 C 134.480 120.716,134.554 120.914,134.576 121.000 C 134.723 121.583,135.417 123.467,135.543 123.625 C 135.633 123.740,135.659 123.833,135.599 123.833 C 135.540 123.833,135.608 124.058,135.750 124.333 C 135.892 124.608,135.963 124.833,135.907 124.833 C 135.852 124.833,135.980 125.115,136.192 125.458 C 136.405 125.802,136.563 126.101,136.544 126.123 C 136.525 126.145,136.544 126.258,136.586 126.373 C 136.628 126.489,136.810 127.015,136.989 127.542 L 137.315 128.500 131.082 128.500 L 124.848 128.500 125.239 127.458 C 125.454 126.885,125.867 125.707,126.157 124.840 C 126.447 123.973,126.759 123.173,126.850 123.063 C 126.942 122.953,127.054 122.655,127.100 122.402 C 127.146 122.148,127.364 121.548,127.583 121.068 C 127.803 120.588,128.109 119.759,128.265 119.225 C 128.420 118.691,128.608 118.141,128.682 118.002 C 128.823 117.740,129.436 116.022,130.477 112.975 C 130.810 111.998,131.097 111.211,131.113 111.226 C 131.129 111.241,131.332 111.815,131.564 112.502 M72.638 115.708 C 72.566 119.966,71.888 121.365,69.793 121.585 C 69.586 121.606,69.379 121.634,69.333 121.647 C 69.083 121.716,19.335 121.635,18.917 121.565 C 18.642 121.520,18.323 121.474,18.208 121.463 C 18.094 121.453,18.000 121.391,18.000 121.326 C 18.000 121.261,17.789 121.120,17.532 121.013 C 16.383 120.537,16.006 119.166,16.003 115.458 L 16.000 112.500 44.346 112.500 L 72.692 112.500 72.638 115.708 " stroke="none" fill="#f3eccc" fill-rule="evenodd"></path><path id="path1" d="M125.712 0.169 C 113.367 0.987,105.282 4.504,100.392 11.184 C 99.399 12.539,97.667 15.496,97.667 15.834 C 97.667 15.925,97.579 16.000,97.472 16.000 C 97.365 16.000,97.327 16.049,97.387 16.110 C 97.448 16.170,97.404 16.331,97.290 16.468 C 96.422 17.511,94.860 23.499,94.218 28.250 C 93.793 31.399,93.792 43.097,94.218 46.250 C 94.777 50.390,95.984 55.369,96.804 56.917 C 96.949 57.192,97.053 57.473,97.034 57.542 C 97.015 57.610,97.075 57.667,97.167 57.667 C 97.258 57.667,97.319 57.723,97.301 57.792 C 97.282 57.860,97.592 58.554,97.987 59.333 C 100.628 64.531,103.396 67.386,108.275 69.941 C 109.453 70.558,110.454 71.113,110.500 71.175 C 110.600 71.311,111.209 71.512,111.349 71.456 C 111.404 71.435,111.558 71.507,111.691 71.618 C 112.369 72.180,117.198 73.398,120.750 73.902 C 129.137 75.093,141.444 74.522,147.583 72.659 C 156.332 70.004,161.759 65.300,165.008 57.555 C 165.386 56.654,165.836 55.606,166.007 55.226 C 167.690 51.495,168.782 41.183,168.342 33.169 C 167.259 13.449,159.681 3.789,143.043 0.922 C 138.835 0.197,130.656 -0.158,125.712 0.169 M16.167 0.600 C 10.520 1.271,5.684 2.984,1.331 5.855 L 0.000 6.733 -0.000 39.868 L -0.000 73.002 14.708 72.959 L 29.417 72.917 29.500 51.417 L 29.583 29.917 29.962 29.209 C 31.242 26.811,36.490 26.620,38.026 28.915 C 38.270 29.281,38.435 29.637,38.392 29.707 C 38.349 29.776,38.401 29.833,38.508 29.833 C 38.617 29.833,38.658 29.949,38.601 30.098 C 38.545 30.244,38.555 30.450,38.622 30.557 C 38.793 30.824,38.782 29.532,38.809 52.375 L 38.833 73.000 44.414 73.000 L 49.994 73.000 50.039 51.458 L 50.083 29.917 50.455 29.222 C 51.902 26.516,57.648 26.691,58.966 29.483 C 59.228 30.037,59.253 31.735,59.295 51.543 L 59.341 73.002 74.045 72.959 L 88.750 72.917 88.750 39.838 L 88.750 6.759 87.780 6.117 C 81.920 2.240,75.326 0.315,68.750 0.562 C 64.559 0.720,61.502 1.503,55.833 3.871 C 46.339 7.836,42.129 7.792,32.244 3.624 C 26.334 1.131,20.666 0.065,16.167 0.600 M173.500 37.332 L 173.500 73.000 188.250 73.000 L 203.000 73.000 203.013 50.208 L 203.025 27.417 203.596 29.083 C 203.910 30.000,204.216 30.863,204.275 31.000 C 204.433 31.365,204.140 30.490,209.165 45.583 C 211.728 53.283,213.937 59.779,214.075 60.018 C 214.212 60.258,214.278 60.499,214.222 60.556 C 214.165 60.612,214.195 60.754,214.288 60.871 C 214.381 60.988,215.347 63.765,216.437 67.042 L 218.417 73.001 233.083 72.959 L 247.750 72.917 247.792 37.291 L 247.834 1.665 233.125 1.707 L 218.417 1.750 218.333 24.202 L 218.250 46.653 216.512 41.452 C 215.557 38.591,214.716 36.170,214.643 36.073 C 214.571 35.976,213.340 32.338,211.908 27.990 C 207.890 15.785,204.993 7.153,204.816 6.854 C 204.728 6.705,204.295 5.496,203.855 4.167 L 203.054 1.750 188.277 1.707 L 173.500 1.665 173.500 37.332 M255.333 37.333 L 255.333 73.000 270.083 73.000 L 284.833 73.000 284.833 57.414 L 284.833 41.828 285.641 43.373 C 286.085 44.222,287.183 46.342,288.080 48.083 C 291.346 54.421,291.880 55.419,292.063 55.539 C 292.166 55.606,292.201 55.663,292.141 55.664 C 292.081 55.666,292.366 56.248,292.774 56.958 C 293.181 57.669,294.329 59.862,295.325 61.833 C 296.320 63.804,297.590 66.272,298.147 67.317 C 298.703 68.362,299.585 70.068,300.107 71.108 L 301.055 73.000 316.783 73.000 C 330.170 73.000,332.524 72.965,332.601 72.765 C 332.685 72.545,331.902 71.151,331.625 71.028 C 331.556 70.997,331.500 70.907,331.500 70.827 C 331.500 70.747,330.176 68.484,328.558 65.799 C 326.940 63.114,325.429 60.579,325.199 60.167 C 324.970 59.754,324.394 58.779,323.920 58.000 C 323.447 57.221,322.952 56.396,322.821 56.167 C 322.690 55.938,322.391 55.487,322.156 55.167 C 321.652 54.478,319.167 50.416,319.167 50.280 C 319.167 50.229,317.769 47.876,316.061 45.052 C 314.353 42.227,312.872 39.766,312.769 39.581 C 312.667 39.396,312.424 39.021,312.228 38.748 C 311.622 37.897,310.167 35.365,310.167 35.160 C 310.167 35.053,310.783 34.092,311.537 33.024 C 313.512 30.229,318.090 23.513,320.087 20.482 C 321.030 19.051,321.978 17.693,322.193 17.464 C 322.570 17.063,325.113 13.346,328.441 8.333 C 330.104 5.828,331.186 4.269,332.125 3.025 C 333.276 1.502,334.934 1.666,318.464 1.674 L 303.917 1.682 303.083 3.007 C 302.625 3.736,302.194 4.333,302.125 4.333 C 302.056 4.333,302.000 4.440,302.000 4.569 C 302.000 4.699,301.940 4.831,301.867 4.861 C 301.793 4.892,300.881 6.304,299.839 8.000 C 298.798 9.696,296.882 12.771,295.583 14.833 C 294.284 16.896,293.014 18.958,292.761 19.417 C 292.508 19.875,292.160 20.403,291.987 20.591 C 291.639 20.968,288.575 25.778,286.349 29.441 L 284.917 31.799 284.874 16.733 L 284.832 1.667 270.082 1.667 L 255.333 1.667 255.333 37.333 M335.875 37.292 L 335.917 72.917 367.958 72.959 L 400.000 73.001 400.000 60.667 L 400.000 48.333 382.667 48.333 L 365.333 48.333 365.333 44.750 L 365.333 41.167 378.486 41.167 C 385.721 41.167,391.758 41.121,391.903 41.066 C 392.134 40.977,392.167 40.438,392.167 36.732 L 392.167 32.500 378.750 32.500 L 365.333 32.500 365.333 29.250 L 365.333 26.000 381.750 26.000 L 398.167 26.000 398.167 13.833 L 398.167 1.667 367.000 1.667 L 335.833 1.667 335.875 37.292 M133.549 7.968 C 134.550 8.410,135.268 9.297,135.489 10.365 C 135.619 10.993,135.659 18.958,135.628 37.750 L 135.583 64.250 135.213 64.943 C 133.830 67.528,128.975 67.576,126.952 65.024 C 126.356 64.272,126.333 63.245,126.333 37.235 C 126.333 12.375,126.374 10.018,126.813 9.667 C 126.870 9.621,127.025 9.375,127.156 9.119 C 127.886 7.704,131.486 7.055,133.549 7.968 " stroke="none" fill="#fccc14" fill-rule="evenodd"></path><path id="path2" d="" stroke="none" fill="#fccc1c" fill-rule="evenodd"></path><path id="path3" d="M207.127 78.285 C 207.334 78.324,207.634 78.323,207.794 78.281 C 207.953 78.239,207.783 78.207,207.417 78.209 C 207.050 78.211,206.920 78.245,207.127 78.285 M213.627 78.285 C 213.834 78.324,214.134 78.323,214.294 78.281 C 214.453 78.239,214.283 78.207,213.917 78.209 C 213.550 78.211,213.420 78.245,213.627 78.285 " stroke="none" fill="#f4dcd0" fill-rule="evenodd"></path><path id="path4" d="M38.747 52.333 C 38.747 63.654,38.767 68.285,38.792 62.625 C 38.816 56.965,38.816 47.702,38.792 42.042 C 38.767 36.381,38.747 41.012,38.747 52.333 " stroke="none" fill="#f4e014" fill-rule="evenodd"></path></g></svg>