<svg width="224" height="32" viewBox="0 0 224 32" fill="none" xmlns="http://www.w3.org/2000/svg">
<g clip-path="url(#clip0_871_1783)">
<path d="M41.5393 7.2002H48.7109L53.6353 15.2838L60.3443 7.2002H67.549L64.3432 29.9784H56.4114L58.0639 18.1311L52.6438 24.7747H51.8176L47.9178 18.1638L46.2653 29.9784H38.3335L41.5393 7.2002Z" fill="white"/>
<path d="M67.3472 22.6475C67.3472 14.2366 73.0977 10.9639 79.1457 10.9639C84.1692 10.9639 87.7055 13.3857 87.7055 18.8839C87.7055 27.3275 81.9219 30.5348 75.9069 30.5348C70.8504 30.5348 67.3472 28.1457 67.3472 22.6475ZM79.7737 19.4402C79.7737 18.0002 79.311 17.182 78.0221 17.182C76.3696 17.182 75.2459 18.9166 75.2459 22.0584C75.2459 23.5311 75.7417 24.3166 77.0306 24.3166C78.683 24.3166 79.7737 22.6802 79.7737 19.4402Z" fill="white"/>
<path d="M90.779 11.5202H97.2236L97.521 13.353C98.6778 11.8475 100.528 10.9639 102.941 10.9639C107.568 10.9639 109.353 13.6802 108.394 18.8184L107.502 23.5311C107.403 24.153 107.634 24.3493 108.031 24.3493C108.559 24.3493 108.923 24.0875 109.22 23.7275L108.394 29.4875C107.667 30.0111 106.246 30.4693 104.461 30.4693C101.718 30.4693 98.7769 29.3239 99.7353 24.2184L100.529 19.9311C100.925 17.8039 100.462 17.182 99.3718 17.182C98.5786 17.182 97.8846 17.7384 97.521 18.4257L95.9016 29.9784H88.2012L90.779 11.5202Z" fill="white"/>
<path d="M132.755 21.993C132.755 14.6948 138.241 10.9639 143.859 10.9639C148.619 10.9639 151.659 12.8948 151.659 16.822C151.659 20.9457 148.618 23.5311 143.198 23.5311C142.174 23.5311 141.116 23.4002 140.654 23.302V23.3348C140.654 24.1202 141.81 24.8402 144.256 24.8402C146.834 24.8402 149.246 23.8911 150.469 22.7784L149.577 28.3748C148.519 29.5857 145.975 30.5348 142.736 30.5348C136.589 30.5348 132.755 27.6875 132.755 21.993ZM144.818 17.6075C144.818 16.953 144.421 16.593 143.496 16.593C142.273 16.593 141.249 17.4111 141.182 18.8184C141.513 18.8839 141.876 18.9493 142.438 18.9493C144.091 18.9493 144.818 18.4584 144.818 17.6075Z" fill="white"/>
<path d="M155.808 7.19971H164.963C172.3 7.19971 176.365 9.32698 176.365 15.7415C176.365 26.4106 169.557 29.9779 161.757 29.9779H152.603L155.808 7.19971ZM162.616 23.7597C166.318 23.7597 168.136 21.7633 168.136 16.8543C168.136 14.3343 166.946 13.4833 164.071 13.4833H162.848L161.394 23.7597H162.616Z" fill="#FAC923"/>
<path d="M184.726 9.62153L184.131 7.19971H192.195L198.508 29.9779H190.411L189.684 27.0652H182.281L180.826 29.9779H173.225L184.726 9.62153ZM184.925 21.8288H188.428L187.701 18.7524L187.337 16.8543L186.478 18.7524L184.925 21.8288Z" fill="#FAC923"/>
<path d="M198.574 20.9454C198.574 11.389 205.481 6.67627 213.116 6.67627C219.693 6.67627 223.989 9.85081 223.989 16.2654C223.989 25.789 217.049 30.5344 209.414 30.5344C202.904 30.5344 198.574 27.3272 198.574 20.9454ZM215.76 17.3126C215.76 14.7926 214.537 13.2872 212.058 13.2872C208.886 13.2872 206.837 15.8726 206.837 19.8326C206.837 22.3526 208.059 23.9235 210.538 23.9235C213.711 23.9235 215.76 21.1744 215.76 17.3126Z" fill="#FAC923"/>
<path d="M114.266 3.46924H122.33L120.684 16.2983L126.865 10.5056H135.259L127.658 17.2801L133.045 29.9783H124.155L121.345 23.0074L119.495 24.6438L118.768 29.9783H110.704L114.266 3.46924Z" fill="white"/>
<path d="M30.9784 9.05855C31.9441 10.8949 32.8622 13.9967 30.9013 17.4658C25.3086 27.3676 15.4195 27.9058 10.2822 27.4004C8.67017 27.2404 7.1646 26.724 5.83161 26.0113C1.60866 23.7495 -0.892058 19.5058 0.316073 18.5022C1.95752 17.1386 11.7915 20.9604 19.0954 16.6331C24.207 13.604 25.9072 9.41128 26.3221 5.93855C26.3221 5.93492 26.3221 5.93492 26.3221 5.93492C26.4506 4.8731 26.4543 3.88037 26.3992 3.00764L28.9514 2.88037C29.2561 5.04401 29.9612 7.12401 30.9784 9.05855Z" fill="#FAC923"/>
<path d="M15.3053 20.1674C15.1731 20.1747 15.0519 20.0874 15.0188 19.9565C14.9821 19.8074 15.0739 19.6583 15.2245 19.6183C16.7411 19.2438 18.0887 18.702 19.3409 17.9565C19.4731 17.8801 19.6457 17.9201 19.7265 18.0511C19.8073 18.182 19.7632 18.3529 19.631 18.4329C18.3274 19.2038 16.932 19.7674 15.3603 20.1565C15.342 20.1638 15.3236 20.1674 15.3053 20.1674Z" fill="white" stroke="white" stroke-width="1.78947" stroke-miterlimit="10"/>
<path d="M11.2995 20.7346C11.1452 20.7419 11.013 20.6255 11.0057 20.4728C10.9984 20.3201 11.1159 20.1892 11.2701 20.1819C11.9605 20.1455 12.6398 20.0837 13.2824 19.9928C13.4366 19.9746 13.5762 20.0765 13.5982 20.2292C13.6203 20.3819 13.5138 20.5201 13.3595 20.5419C12.7022 20.6328 12.0082 20.6983 11.2995 20.7346Z" fill="white" stroke="white" stroke-width="1.78947" stroke-miterlimit="10"/>
<path d="M9.72042 20.7674C9.71675 20.7674 9.70941 20.7674 9.70573 20.7674C7.7338 20.7565 5.85367 20.5601 4.34442 20.4038C4.19019 20.3892 4.07636 20.251 4.09472 20.0983C4.10941 19.9456 4.24895 19.8329 4.40318 19.851C5.90141 20.0074 7.76318 20.2038 9.70941 20.211C9.86364 20.211 9.98849 20.3383 9.98849 20.491C9.98482 20.6401 9.86731 20.7601 9.72042 20.7674Z" fill="white" stroke="white" stroke-width="1.78947" stroke-miterlimit="10"/>
<path d="M30.9052 17.4656C25.3088 27.3637 15.4198 27.9019 10.2825 27.4001C6.84168 27.0619 3.89663 25.0874 2.05322 23.0583C3.73139 24.2801 5.81348 25.2437 8.11958 25.4692C13.2569 25.971 23.1496 25.4328 28.7423 15.531C30.7032 12.0656 29.7852 8.9601 28.8194 7.12374C28.1254 5.8001 27.5745 4.40737 27.2 2.96737L28.9589 2.87646C29.2564 5.03646 29.9651 7.11646 30.9823 9.05465C31.9444 10.8983 32.8624 13.9965 30.9052 17.4656Z" fill="#FAC923"/>
<path d="M30.9783 9.05833C31.9441 10.8947 32.8621 13.9965 30.9012 17.4656C25.3085 27.3674 15.4195 27.9056 10.2822 27.4002C8.6701 27.2402 7.16453 26.7238 5.83154 26.0111C5.87194 25.9056 5.92335 25.8147 5.97108 25.7347C6.34197 25.1383 7.00662 24.8256 7.47666 24.6402C8.30656 24.3165 9.45594 24.062 10.7852 23.7674C12.6213 23.3638 14.9017 22.8583 17.1087 21.9965C19.7709 20.9565 21.7869 19.6147 23.2742 17.8911C26.983 13.5892 27.1629 9.28379 26.3257 5.94197C26.3257 5.93833 26.3257 5.93833 26.3257 5.93833C26.4542 4.87652 26.4579 3.88379 26.4028 3.01106L28.9549 2.88379C29.2561 5.04379 29.9611 7.12379 30.9783 9.05833Z" fill="#DC820E"/>
<path d="M29.0391 2.46191L26.6632 3.39282C28.0807 6.84737 29.1786 12.7492 24.1258 18.611C18.5992 25.0183 8.04552 24.5019 6.92919 26.3128C5.84591 28.0692 12.6577 33.0983 19.2382 31.6001C24.269 30.4546 33.4714 26.8183 35.5828 15.6692C36.3246 11.7637 34.4518 9.11282 32.9462 7.67646C31.3599 6.16373 30.0196 4.41464 29.0391 2.46191Z" fill="#FAC923"/>
<path d="M26.6304 18.4185C26.5496 18.4512 26.4505 18.4439 26.3734 18.393C26.2449 18.3094 26.2081 18.1348 26.2963 18.0075C27.5705 16.113 28.3784 14.0766 28.7052 11.9603C28.7272 11.8075 28.8704 11.7057 29.0247 11.7275C29.1789 11.7494 29.2817 11.8912 29.2597 12.0439C28.9218 14.2403 28.0846 16.3494 26.7626 18.3166C26.7296 18.3639 26.6818 18.3966 26.6304 18.4185Z" fill="white" stroke="white" stroke-width="1.78947" stroke-miterlimit="10"/>
<path d="M21.8344 23.131C21.7132 23.1782 21.57 23.1346 21.4965 23.0219C21.4121 22.8946 21.4525 22.72 21.581 22.64C22.8993 21.8073 24.0009 20.8655 24.9483 19.7637C25.0475 19.6473 25.2274 19.6328 25.3449 19.7346C25.4624 19.8328 25.4771 20.011 25.3743 20.1273C24.3902 21.2691 23.2445 22.2473 21.8821 23.1091C21.8674 23.1164 21.8527 23.1237 21.8344 23.131Z" fill="white" stroke="white" stroke-width="1.78947" stroke-miterlimit="10"/>
<path d="M18.2212 24.935C18.078 24.9896 17.9128 24.9205 17.8577 24.7787C17.8026 24.6368 17.8724 24.4732 18.0156 24.4187C18.6582 24.1677 19.2825 23.8914 19.8627 23.6041C20.0022 23.535 20.1711 23.5896 20.2372 23.7277C20.307 23.8659 20.2519 24.0332 20.1124 24.0987C19.5175 24.3968 18.8822 24.6768 18.2212 24.935Z" fill="white" stroke="white" stroke-width="1.78947" stroke-miterlimit="10"/>
<path d="M16.7341 25.4658C16.7304 25.4694 16.7231 25.4694 16.7194 25.4694C14.8466 26.084 13.0032 26.4912 11.5233 26.8185C11.3728 26.8512 11.2222 26.7567 11.1892 26.6076C11.1561 26.4585 11.2516 26.3094 11.4021 26.2767C12.871 25.9531 14.6997 25.5494 16.5468 24.9422C16.6937 24.8949 16.8516 24.9713 16.903 25.1203C16.9434 25.2622 16.8736 25.4112 16.7341 25.4658Z" fill="white" stroke="white" stroke-width="1.78947" stroke-miterlimit="10"/>
<path d="M35.5834 15.6728C33.4682 26.8219 24.2695 30.4546 19.2387 31.6037C15.8714 32.371 12.4416 31.4292 10.04 30.0874C12.0267 30.7128 14.3071 30.971 16.5654 30.4546C21.5962 29.3056 30.7986 25.6728 32.9101 14.5237C33.6518 10.6183 31.7791 7.96737 30.2735 6.531C29.1865 5.49464 28.2208 4.34919 27.4019 3.10191L29.0396 2.46191C30.0201 4.41464 31.3604 6.16373 32.9468 7.67646C34.456 9.11646 36.3252 11.7637 35.5834 15.6728Z" fill="#DC820E"/>
<path d="M26.4249 4.68379L25.5693 1.79652C25.4261 1.31288 25.6832 0.800154 26.1605 0.621972L27.3283 0.185609C27.8313 -0.00348221 28.3895 0.247427 28.5841 0.741972L29.7298 3.70197L26.4249 4.68379Z" fill="#603813"/>
</g>
<defs>
<clipPath id="clip0_871_1783">
<rect width="224" height="32" fill="white"/>
</clipPath>
</defs>
</svg>
