<svg width="248" height="387" viewBox="0 0 248 387" fill="none" xmlns="http://www.w3.org/2000/svg">
<path fill-rule="evenodd" clip-rule="evenodd" d="M248 26.4539L239.819 19.7541C237.357 17.751 214.778 0 182.487 0C164.937 0 152.589 5.24933 142.686 9.47988C134.798 12.847 130.045 14.7292 124 14.7292C117.955 14.7292 113.202 12.8298 105.314 9.47988C95.3939 5.24933 83.0628 0 65.5133 0C33.2217 0 10.6433 17.751 8.18056 19.7541L0 26.4539V211.113H38.0783C26.0917 228.588 20.0811 252.313 20.0811 282.652V387H227.919V282.652C227.919 252.313 221.908 228.588 209.922 211.113H248V26.4539ZM178.715 275.21H178.698H58.3489V286.365C58.3489 296.743 63.8944 297.52 69.285 297.52H178.698C184.088 297.52 189.634 296.76 189.634 286.365V275.21H178.715ZM124 196.953C184.571 196.953 205.668 224.91 205.668 282.67V364.69H42.3322V282.67C42.3322 224.91 63.4294 196.953 124 196.953ZM225.749 37.0389C225.749 37.0389 207.769 22.3097 182.487 22.3097C169.464 22.3097 160.284 26.2176 151.382 30.0076C143 33.5755 134.865 37.0389 124 37.0389C113.135 37.0389 105 33.5755 96.6185 30.0076C87.7158 26.2176 78.536 22.3097 65.5133 22.3097C40.2311 22.3097 22.2511 37.0389 22.2511 37.0389V188.786H89.2972V95.0924C89.2972 89.4286 90.055 83.6094 100.423 83.6094C110.791 83.6094 111.548 89.4286 111.548 95.0924V179.893C115.509 179.6 119.626 179.41 124 179.41C128.374 179.41 132.491 179.6 136.452 179.893V95.0924C136.452 89.4286 137.209 83.6094 147.577 83.6094C157.945 83.6094 158.703 89.4286 158.703 95.0924V188.786H225.749V37.0389Z" fill="#184623"/>
</svg>
