<svg width="732" height="280" viewBox="0 0 732 280" fill="none" xmlns="http://www.w3.org/2000/svg">
<g clip-path="url(#clip0_114_67)">
<path d="M668.515 88.9779V74.8223H717.394V59.7205H668.515V47.3279H728.675V3.04639H615.16V133.259H732V88.9779H668.515Z" fill="#184623"/>
<path d="M266.244 276.954H322.51L273.153 146.728H206.498L157.141 276.954H213.407L222.593 251.209H257.059L266.244 276.954V276.954ZM227.988 236.107L239.839 202.896L251.69 236.107H228.001H227.988Z" fill="#184623"/>
<path d="M608.989 3.04639H556.591L520.909 59.6816V3.04639H467.542V133.259H520.909V74.8871L551.352 133.259H608.627L567.11 64.3353L608.989 3.04639Z" fill="#184623"/>
<path d="M399.903 3.04639V88.2649L371.376 3.04639H318.008V133.259H371.376V48.0279L399.903 133.246V133.259H453.258V3.04639H399.903Z" fill="#184623"/>
<path d="M239.826 0C193.987 0 171.799 17.6037 171.799 68.1593C171.799 118.715 193.987 136.319 239.826 136.319C285.664 136.319 307.852 118.715 307.852 68.1593C307.852 17.6037 285.664 0 239.826 0ZM248.675 113.815C248.675 118.313 248.067 122.941 239.826 122.941C231.584 122.941 230.976 118.313 230.976 113.815V22.4907C230.976 17.9926 231.584 13.3648 239.826 13.3648C248.067 13.3648 248.675 17.9926 248.675 22.4907V113.815Z" fill="#184623"/>
<path d="M385.672 143.694C339.834 143.694 317.646 161.298 317.646 211.854C317.646 262.409 339.834 280.013 385.672 280.013C431.51 280.013 453.698 262.409 453.698 211.854C453.698 161.298 431.51 143.694 385.672 143.694V143.694ZM394.521 257.509C394.521 262.007 393.913 266.635 385.672 266.635C377.43 266.635 376.822 262.007 376.822 257.509V166.198C376.822 161.7 377.43 157.072 385.672 157.072C393.913 157.072 394.521 161.7 394.521 166.198V257.509Z" fill="#184623"/>
<path d="M80.9639 143.694C32.7582 143.694 15.978 165.926 15.978 211.854V277.07H145.937V211.854C145.937 165.926 129.157 143.694 80.951 143.694H80.9639ZM133.206 214.783C133.206 223.041 128.794 223.65 124.499 223.65H37.4287C33.1334 223.65 28.7216 223.041 28.7216 214.783V205.917H133.193V214.783H133.206Z" fill="#184623"/>
<path d="M127.501 0.881592C107.383 0.881592 98.792 12.6001 80.9639 12.6001C63.1358 12.6001 54.5452 0.881592 34.4142 0.881592C14.2832 0.881592 0 12.6001 0 12.6001V133.259H53.3549V58.7612C53.3549 54.2631 53.963 49.6353 62.2043 49.6353C70.4456 49.6353 71.0536 54.2631 71.0536 58.7612V133.272H90.8741V58.7612C90.8741 54.2631 91.4822 49.6353 99.7235 49.6353C107.965 49.6353 108.573 54.2631 108.573 58.7612V133.272H161.928V12.6001C161.928 12.6001 147.619 0.881592 127.501 0.881592Z" fill="#184623"/>
</g>
<defs>
<clipPath id="clip0_114_67">
<rect width="732" height="280" fill="white"/>
</clipPath>
</defs>
</svg>
