<svg width="46" height="48" viewBox="0 0 46 48" fill="none" xmlns="http://www.w3.org/2000/svg">
<path d="M4.8223 25.3624C6.007 25.4411 7.15878 25.7846 8.19239 26.3673C9.7244 27.245 11.2676 28.1005 12.8155 28.9638C12.9911 29.0652 13.1726 29.156 13.3591 29.2357C14.2152 29.584 14.7811 29.3152 14.9963 28.3946C15.2259 27.4167 15.3008 26.4118 14.9453 25.4546C14.3332 23.8058 13.6955 22.1649 13.0068 20.5462C10.7059 15.1422 8.38954 9.74561 6.05779 4.35645C5.55722 3.17983 5.39621 2.05408 6.29214 0.996707C6.55917 0.682716 6.89182 0.430767 7.26677 0.258513C7.64172 0.0862591 8.0499 -0.00213148 8.4627 -0.000465152C8.87551 0.00120118 9.28296 0.0928841 9.6565 0.268159C10.03 0.443434 10.3606 0.698061 10.6251 1.0142C10.8439 1.28065 11.0426 1.56286 11.2197 1.85851C13.7566 5.9131 16.2871 9.9714 18.8112 14.0334C19.0806 14.4675 19.3309 14.5629 19.8363 14.4627C26.2783 13.1907 32.6375 13.4705 38.8915 15.5424C39.5116 15.7491 40.0202 16.0846 40.28 16.7222C41.93 20.7895 43.2802 24.9458 43.7298 29.3296C43.9163 31.1549 44.1778 32.9469 44.774 34.6784C45.0498 35.4735 45.4117 36.2494 45.7433 37.0349C46.2885 38.3451 45.9569 39.4692 44.7581 40.2547C41.2615 42.5443 37.7601 44.8271 34.254 47.103C32.2485 48.3988 30.0773 48.3082 28.2998 46.7134C24.7033 43.4888 20.5712 41.2453 16.015 39.7173C14.5803 39.2402 13.4069 38.3562 12.2336 37.4371C9.506 35.2985 6.84053 33.063 3.80362 31.3489C2.95712 30.8719 2.08032 30.4426 1.21468 29.9974C-0.0925469 29.3232 -0.347615 28.4073 0.463821 27.1607C1.33265 25.8315 2.62393 25.3258 4.8223 25.3624Z" fill="url(#paint0_linear_568_1185)"/>
<defs>
<linearGradient id="paint0_linear_568_1185" x1="22.9989" y1="-0.000488281" x2="22.9989" y2="47.9997" gradientUnits="userSpaceOnUse">
<stop stop-color="#FAC923"/>
<stop offset="1" stop-color="#CF9C00"/>
</linearGradient>
</defs>
</svg>
