<svg width="21" height="16" viewBox="0 0 21 16" fill="none" xmlns="http://www.w3.org/2000/svg">
<path d="M21 1.89415C20.2191 2.21538 19.3869 2.42831 18.5194 2.53169C19.4119 2.032 20.0931 1.24677 20.4133 0.300308C19.5812 0.765538 18.6624 1.09415 17.6833 1.27754C16.8932 0.488616 15.7671 0 14.5386 0C12.1551 0 10.2362 1.81415 10.2362 4.03815C10.2362 4.35815 10.2651 4.66585 10.3359 4.95877C6.75675 4.79508 3.58969 3.18646 1.46212 0.736C1.09069 1.34031 0.872813 2.032 0.872813 2.77662C0.872813 4.17477 1.64062 5.41415 2.78513 6.13169C2.09344 6.11938 1.41488 5.93108 0.84 5.63446C0.84 5.64677 0.84 5.66277 0.84 5.67877C0.84 7.64062 2.33231 9.27015 4.28925 9.64554C3.93881 9.73538 3.55687 9.77846 3.1605 9.77846C2.88488 9.77846 2.60662 9.76369 2.34544 9.70954C2.90325 11.3083 4.48613 12.4837 6.36825 12.5218C4.9035 13.5963 3.04369 14.2437 1.03031 14.2437C0.67725 14.2437 0.338625 14.2289 0 14.1883C1.90706 15.3415 4.16719 16 6.6045 16C14.5267 16 18.858 9.84615 18.858 4.512C18.858 4.33354 18.8514 4.16123 18.8423 3.99015C19.6967 3.42154 20.4146 2.71138 21 1.89415Z" fill="white"/>
</svg>
