<svg width="352" height="300" viewBox="0 0 352 300" fill="none" xmlns="http://www.w3.org/2000/svg">
<ellipse cx="150.852" cy="150" rx="150.852" ry="150" fill="url(#paint0_radial_559_489)"/>
<mask id="mask0_559_489" style="mask-type:alpha" maskUnits="userSpaceOnUse" x="0" y="0" width="302" height="300">
<ellipse rx="150.852" ry="150" transform="matrix(-1 0 0 1 150.854 150)" fill="#AAAAAA"/>
</mask>
<g mask="url(#mask0_559_489)">
<path d="M-186.779 219.431C-186.902 221.853 -186.984 224.286 -187.026 226.728L-185.563 226.753C-185.583 227.966 -185.594 229.182 -185.594 230.4C-185.594 231.618 -185.583 232.834 -185.563 234.047L-187.026 234.072C-186.984 236.514 -186.902 238.947 -186.779 241.369L-185.317 241.295C-185.194 243.726 -185.029 246.146 -184.823 248.555L-186.281 248.679C-186.074 251.117 -185.825 253.542 -185.535 255.956L-184.082 255.781C-183.794 258.19 -183.464 260.586 -183.095 262.969L-184.541 263.193C-184.166 265.612 -183.751 268.018 -183.295 270.409L-181.857 270.135C-181.403 272.52 -180.908 274.891 -180.374 277.247L-181.801 277.571C-181.261 279.952 -180.681 282.319 -180.062 284.67L-178.647 284.297C-178.029 286.645 -177.371 288.977 -176.675 291.292L-178.076 291.713C-177.372 294.053 -176.629 296.377 -175.847 298.682L-174.461 298.212C-173.682 300.509 -172.865 302.787 -172.011 305.048L-173.379 305.565C-172.516 307.849 -171.614 310.115 -170.674 312.361L-169.324 311.797C-168.388 314.034 -167.415 316.253 -166.405 318.451L-167.734 319.062C-166.715 321.28 -165.659 323.478 -164.567 325.655L-163.259 324.998C-162.172 327.164 -161.049 329.309 -159.89 331.432L-161.175 332.133C-160.005 334.276 -158.8 336.397 -157.559 338.495L-156.3 337.75C-155.066 339.836 -153.798 341.9 -152.496 343.94L-153.729 344.727C-152.416 346.783 -151.069 348.816 -149.688 350.823L-148.483 349.994C-147.11 351.991 -145.703 353.963 -144.264 355.909L-145.441 356.779C-143.99 358.741 -142.507 360.677 -140.992 362.587L-139.846 361.677C-138.34 363.575 -136.803 365.447 -135.234 367.291L-136.349 368.239C-134.769 370.097 -133.158 371.928 -131.516 373.73L-130.435 372.745C-128.804 374.536 -127.143 376.298 -125.452 378.033L-126.5 379.054C-124.798 380.8 -123.066 382.517 -121.305 384.205L-120.293 383.148C-118.545 384.824 -116.768 386.47 -114.963 388.086L-115.939 389.176C-114.123 390.802 -112.279 392.398 -110.407 393.963L-109.469 392.84C-107.612 394.393 -105.728 395.915 -103.817 397.405L-104.717 398.559C-102.795 400.058 -100.847 401.525 -98.8734 402.959L-98.0132 401.776C-96.0549 403.199 -94.0714 404.59 -92.0633 405.947L-92.8829 407.16C-90.8649 408.524 -88.8223 409.855 -86.7559 411.152L-85.9779 409.913C-83.9286 411.199 -81.8557 412.452 -79.7599 413.67L-80.4953 414.935C-78.3884 416.16 -76.2588 417.35 -74.107 418.504L-73.4152 417.215C-71.2841 418.359 -69.1313 419.467 -66.9575 420.54L-67.605 421.852C-65.4215 422.929 -63.2171 423.971 -60.9923 424.976L-60.39 423.642C-58.1854 424.638 -55.9608 425.597 -53.7169 426.52L-54.2733 427.873C-52.0215 428.799 -49.7503 429.688 -47.4607 430.539L-46.9508 429.168C-44.686 430.01 -42.403 430.815 -40.1024 431.581L-40.5651 432.97C-38.2559 433.739 -35.9292 434.471 -33.5857 435.164L-33.1707 433.761C-30.8519 434.447 -28.5165 435.095 -26.1654 435.703L-26.5322 437.12C-24.1792 437.729 -21.8105 438.3 -19.4269 438.831L-19.1087 437.403C-16.7508 437.928 -14.3782 438.415 -11.9915 438.862L-12.2609 440.3C-9.86774 440.749 -7.46054 441.158 -5.04002 441.526L-4.81966 440.08C-2.43579 440.443 -0.0388947 440.767 2.37035 441.051L2.19904 442.504C4.61272 442.788 7.03867 443.033 9.4762 443.237L9.59839 441.779C12.0078 441.981 14.4286 442.143 16.8602 442.265L16.7871 443.726C19.2094 443.847 21.6423 443.929 24.0851 443.969L24.1095 442.506C25.3228 442.527 26.5385 442.537 27.7567 442.537C28.9749 442.537 30.1907 442.527 31.404 442.506L31.4283 443.969C33.8711 443.929 36.304 443.847 38.7263 443.726L38.6532 442.265C41.0848 442.143 43.5057 441.981 45.9151 441.779L46.0372 443.237C48.4748 443.033 50.9007 442.788 53.3144 442.504L53.1431 441.051C55.5523 440.767 57.9492 440.443 60.3331 440.08L60.5534 441.526C62.9739 441.158 65.3811 440.749 67.7743 440.3L67.5049 438.862C69.8916 438.415 72.2642 437.928 74.622 437.403L74.9403 438.831C77.3239 438.3 79.6926 437.729 82.0455 437.12L81.6788 435.703C84.0299 435.095 86.3652 434.447 88.6841 433.761L89.0991 435.164C91.4426 434.471 93.7692 433.739 96.0784 432.97L95.6157 431.581C97.9163 430.815 100.199 430.01 102.464 429.168L102.974 430.539C105.264 429.688 107.535 428.799 109.787 427.873L109.23 426.52C111.474 425.597 113.699 424.638 115.903 423.642L116.506 424.976C118.73 423.971 120.935 422.929 123.118 421.852L122.471 420.54C124.645 419.467 126.797 418.359 128.929 417.215L129.62 418.505C131.772 417.35 133.902 416.16 136.009 414.935L135.273 413.67C137.369 412.452 139.442 411.199 141.491 409.913L142.269 411.152C144.336 409.855 146.378 408.524 148.396 407.16L147.577 405.948C149.585 404.59 151.568 403.199 153.526 401.776L154.387 402.959C156.36 401.525 158.309 400.058 160.231 398.559L159.331 397.405C161.241 395.915 163.125 394.393 164.982 392.84L165.921 393.963C167.792 392.398 169.636 390.802 171.452 389.176L170.476 388.086C172.281 386.47 174.058 384.824 175.806 383.148L176.819 384.205C178.579 382.517 180.311 380.8 182.013 379.054L180.965 378.033C182.656 376.299 184.317 374.536 185.948 372.745L187.03 373.73C188.671 371.928 190.283 370.097 191.863 368.239L190.748 367.291C192.316 365.447 193.854 363.575 195.359 361.677L196.506 362.587C198.021 360.677 199.504 358.741 200.954 356.779L199.777 355.91C201.216 353.963 202.623 351.991 203.996 349.994L205.202 350.823C206.582 348.816 207.93 346.783 209.242 344.727L208.009 343.94C209.311 341.9 210.58 339.836 211.813 337.75L213.073 338.495C214.313 336.397 215.518 334.276 216.688 332.133L215.404 331.432C216.562 329.309 217.685 327.164 218.772 324.998L220.08 325.655C221.173 323.478 222.229 321.28 223.248 319.062L221.918 318.451C222.928 316.253 223.902 314.035 224.838 311.797L226.188 312.361C227.127 310.115 228.029 307.85 228.893 305.565L227.524 305.048C228.379 302.788 229.196 300.509 229.974 298.212L231.36 298.682C232.142 296.377 232.885 294.053 233.589 291.713L232.188 291.292C232.884 288.977 233.542 286.645 234.161 284.297L235.576 284.67C236.195 282.319 236.775 279.952 237.315 277.571L235.888 277.247C236.422 274.891 236.916 272.52 237.371 270.135L238.808 270.409C239.264 268.018 239.68 265.612 240.054 263.193L238.608 262.969C238.978 260.586 239.307 258.19 239.596 255.781L241.049 255.956C241.338 253.542 241.587 251.117 241.795 248.679L240.337 248.555C240.542 246.146 240.707 243.726 240.831 241.295L242.292 241.369C242.415 238.947 242.498 236.514 242.539 234.071L241.076 234.047C241.097 232.834 241.107 231.618 241.107 230.4C241.107 229.182 241.097 227.966 241.076 226.753L242.539 226.728C242.498 224.286 242.415 221.853 242.292 219.431L240.831 219.505C240.707 217.074 240.542 214.654 240.337 212.245L241.795 212.12C241.587 209.683 241.338 207.257 241.049 204.844L239.596 205.018C239.307 202.61 238.978 200.214 238.608 197.831L240.054 197.607C239.68 195.188 239.264 192.782 238.808 190.391L237.371 190.665C236.916 188.279 236.422 185.909 235.888 183.553L237.315 183.229C236.775 180.847 236.195 178.481 235.576 176.13L234.161 176.503C233.542 174.155 232.884 171.823 232.188 169.508L233.589 169.087C232.885 166.746 232.142 164.423 231.36 162.118L229.974 162.587C229.196 160.291 228.379 158.012 227.524 155.752L228.893 155.234C228.029 152.95 227.127 150.685 226.188 148.439L224.838 149.003C223.902 146.765 222.928 144.547 221.918 142.348L223.248 141.738C222.229 139.519 221.173 137.322 220.08 135.145L218.772 135.802C217.685 133.636 216.562 131.491 215.404 129.368L216.688 128.667C215.518 126.524 214.313 124.403 213.073 122.305L211.813 123.05C210.58 120.964 209.311 118.9 208.009 116.86L209.242 116.073C207.93 114.017 206.582 111.984 205.202 109.977L203.996 110.806C202.623 108.809 201.216 106.837 199.777 104.89L200.954 104.021C199.504 102.059 198.021 100.123 196.506 98.213L195.359 99.1224C193.854 97.2248 192.316 95.3533 190.748 93.5088L191.863 92.5608C190.283 90.703 188.672 88.8723 187.03 87.0697L185.948 88.0549C184.317 86.2642 182.656 84.5014 180.965 82.7671L182.013 81.7457C180.311 79.9998 178.579 78.2827 176.819 76.5952L175.806 77.6516C174.058 75.976 172.281 74.3297 170.476 72.7137L171.452 71.6236C169.636 69.9974 167.792 68.4017 165.921 66.8371L164.982 67.9597C163.125 66.407 161.241 64.8852 159.331 63.3951L160.231 62.2413C158.309 60.7423 156.361 59.2751 154.387 57.8406L153.527 59.0242C151.568 57.601 149.585 56.2101 147.577 54.8524L148.396 53.6402C146.378 52.2758 144.336 50.9446 142.269 49.6475L141.491 50.8868C139.442 49.6004 137.369 48.3477 135.273 47.1296L136.009 45.8645C133.902 44.6399 131.772 43.4499 129.62 42.2954L128.929 43.5848C126.798 42.4414 124.645 41.3329 122.471 40.2603L123.118 38.9481C120.935 37.8707 118.73 36.8292 116.506 35.8243L115.903 37.1578C113.699 36.162 111.474 35.2024 109.23 34.2798L109.787 32.9265C107.535 32.0006 105.264 31.1117 102.974 30.2605L102.464 31.632C100.199 30.7901 97.9163 29.9853 95.6158 29.2184L96.0785 27.8303C93.7693 27.0605 91.4426 26.3287 89.0991 25.6356L88.6841 27.0388C86.3653 26.353 84.0299 25.7053 81.6788 25.0965L82.0456 23.68C79.6926 23.0707 77.324 22.5001 74.9404 21.9689L74.6221 23.3971C72.2642 22.8717 69.8916 22.385 67.5049 21.9379L67.7743 20.4996C65.3811 20.0513 62.9739 19.6424 60.5534 19.2737L60.3331 20.7202C57.9492 20.3571 55.5523 20.0332 53.1431 19.7492L53.3144 18.296C50.9007 18.0115 48.4747 17.7667 46.0372 17.5625L45.915 19.0206C43.5056 18.8187 41.0848 18.6567 38.6532 18.535L38.7263 17.0736C36.304 16.9525 33.8711 16.8712 31.4283 16.8305L31.4039 18.2936C30.1906 18.2733 28.9749 18.2632 27.7567 18.2632C26.5385 18.2632 25.3227 18.2733 24.1094 18.2936L24.0851 16.8305C21.6422 16.8712 19.2094 16.9525 16.7871 17.0736L16.8602 18.535C14.4286 18.6567 12.0077 18.8188 9.59834 19.0207L9.47615 17.5625C7.03862 17.7668 4.61269 18.0115 2.19902 18.296L2.37033 19.7492C-0.0389099 20.0332 -2.43581 20.3571 -4.81967 20.7202L-5.04004 19.2737C-7.46054 19.6424 -9.86774 20.0513 -12.2609 20.4996L-11.9915 21.9379C-14.3781 22.385 -16.7508 22.8717 -19.1086 23.3971L-19.4269 21.9689C-21.8105 22.5001 -24.1792 23.0707 -26.5322 23.68L-26.1653 25.0965C-28.5165 25.7053 -30.8519 26.353 -33.1707 27.0388L-33.5857 25.6356C-35.9291 26.3287 -38.2559 27.0605 -40.5651 27.8302L-40.1023 29.2184C-42.4029 29.9853 -44.6859 30.79 -46.9507 31.632L-47.4606 30.2604C-49.7503 31.1116 -52.0214 32.0005 -54.2733 32.9264L-53.7168 34.2798C-55.9607 35.2024 -58.1853 36.162 -60.3899 37.1578L-60.9922 35.8242C-63.217 36.8291 -65.4214 37.8707 -67.6049 38.9481L-66.9574 40.2603C-69.1313 41.3329 -71.2841 42.4413 -73.4151 43.5847L-74.1069 42.2953C-76.2587 43.4499 -78.3884 44.6398 -80.4952 45.8645L-79.7599 47.1295C-81.8556 48.3477 -83.9285 49.6004 -85.9779 50.8868L-86.7558 49.6474C-88.8222 50.9445 -90.8648 52.2757 -92.8829 53.6402L-92.0633 54.8524C-94.0713 56.21 -96.0548 57.6009 -98.0131 59.0242L-98.8734 57.8405C-100.847 59.275 -102.795 60.7422 -104.717 62.2413L-103.817 63.395C-105.728 64.8851 -107.612 66.4069 -109.469 67.9596L-110.407 66.837C-112.279 68.4016 -114.123 69.9974 -115.939 71.6235L-114.963 72.7136C-116.768 74.3297 -118.545 75.9759 -120.293 77.6516L-121.305 76.5952C-123.066 78.2827 -124.798 79.9997 -126.5 81.7456L-125.452 82.767C-127.143 84.5013 -128.804 86.2642 -130.435 88.0548L-131.516 87.0696C-133.158 88.8723 -134.769 90.7029 -136.349 92.5608L-135.234 93.5087C-136.803 95.3532 -138.34 97.2247 -139.846 99.1224L-140.992 98.2129C-142.507 100.123 -143.99 102.059 -145.441 104.021L-144.264 104.89C-145.703 106.837 -147.109 108.809 -148.483 110.806L-149.688 109.977C-151.069 111.984 -152.416 114.017 -153.729 116.073L-152.496 116.86C-153.798 118.9 -155.066 120.963 -156.3 123.05L-157.559 122.305C-158.8 124.403 -160.005 126.524 -161.175 128.667L-159.89 129.368C-161.049 131.491 -162.172 133.636 -163.259 135.801L-164.567 135.145C-165.659 137.322 -166.715 139.519 -167.734 141.738L-166.405 142.348C-167.415 144.547 -168.388 146.765 -169.324 149.003L-170.674 148.439C-171.613 150.685 -172.515 152.95 -173.379 155.234L-172.011 155.752C-172.865 158.012 -173.682 160.291 -174.461 162.587L-175.847 162.118C-176.628 164.423 -177.372 166.746 -178.076 169.086L-176.674 169.508C-177.371 171.823 -178.029 174.155 -178.647 176.503L-180.062 176.13C-180.681 178.481 -181.261 180.847 -181.801 183.229L-180.374 183.553C-180.908 185.909 -181.403 188.28 -181.857 190.665L-183.295 190.391C-183.751 192.782 -184.166 195.188 -184.541 197.607L-183.095 197.831C-183.464 200.214 -183.794 202.61 -184.082 205.018L-185.535 204.844C-185.825 207.258 -186.074 209.683 -186.281 212.12L-184.823 212.245C-185.029 214.654 -185.194 217.074 -185.317 219.505L-186.779 219.431Z" stroke="#FAC300" stroke-width="2.92653" stroke-dasharray="7.27 7.27"/>
<path d="M59.4124 219.431C59.2891 221.853 59.2065 224.286 59.1651 226.728L60.6281 226.753C60.6076 227.966 60.5973 229.182 60.5973 230.4C60.5973 231.618 60.6076 232.834 60.6281 234.047L59.1651 234.072C59.2065 236.514 59.2891 238.947 59.4124 241.369L60.8737 241.295C60.9974 243.726 61.1623 246.146 61.3676 248.555L59.9096 248.679C60.1173 251.117 60.3662 253.542 60.6556 255.956L62.1085 255.781C62.3972 258.19 62.7266 260.586 63.0959 262.969L61.6499 263.193C62.0247 265.612 62.4404 268.018 62.8961 270.409L64.3335 270.135C64.788 272.52 65.2827 274.891 65.8167 277.247L64.3897 277.571C64.9296 279.952 65.5096 282.319 66.1288 284.67L67.5438 284.297C68.1621 286.645 68.8199 288.977 69.5164 291.292L68.1152 291.713C68.8192 294.053 69.5624 296.377 70.3442 298.682L71.7299 298.212C72.5085 300.509 73.3256 302.787 74.1804 305.048L72.8117 305.565C73.6754 307.849 74.5774 310.115 75.5168 312.361L76.8667 311.797C77.8027 314.034 78.776 316.253 79.7861 318.451L78.4565 319.062C79.4756 321.28 80.5317 323.478 81.6241 325.655L82.9319 324.998C84.0189 327.164 85.1421 329.309 86.3007 331.432L85.0162 332.133C86.1859 334.276 87.3912 336.397 88.6317 338.495L89.8913 337.75C91.1247 339.836 92.3929 341.9 93.6953 343.94L92.4619 344.727C93.7747 346.783 95.1219 348.816 96.5027 350.823L97.7083 349.994C99.0814 351.991 100.488 353.963 101.927 355.909L100.75 356.779C102.2 358.741 103.684 360.677 105.199 362.587L106.345 361.677C107.85 363.575 109.388 365.447 110.956 367.291L109.842 368.239C111.422 370.097 113.033 371.928 114.674 373.73L115.756 372.745C117.387 374.536 119.048 376.298 120.739 378.033L119.691 379.054C121.393 380.8 123.125 382.517 124.885 384.205L125.898 383.148C127.646 384.824 129.423 386.47 131.228 388.086L130.252 389.176C132.068 390.802 133.912 392.398 135.783 393.963L136.722 392.84C138.579 394.393 140.463 395.915 142.374 397.405L141.474 398.559C143.396 400.058 145.344 401.525 147.317 402.959L148.178 401.776C150.136 403.199 152.12 404.59 154.128 405.947L153.308 407.16C155.326 408.524 157.369 409.855 159.435 411.152L160.213 409.913C162.262 411.199 164.335 412.452 166.431 413.67L165.696 414.935C167.802 416.16 169.932 417.35 172.084 418.504L172.776 417.215C174.907 418.359 177.06 419.467 179.233 420.54L178.586 421.852C180.769 422.929 182.974 423.971 185.199 424.976L185.801 423.642C188.006 424.638 190.23 425.597 192.474 426.52L191.918 427.873C194.169 428.799 196.441 429.688 198.73 430.539L199.24 429.168C201.505 430.01 203.788 430.815 206.089 431.581L205.626 432.97C207.935 433.739 210.262 434.471 212.605 435.164L213.02 433.761C215.339 434.447 217.674 435.095 220.026 435.703L219.659 437.12C222.012 437.729 224.38 438.3 226.764 438.831L227.082 437.403C229.44 437.928 231.813 438.415 234.199 438.862L233.93 440.3C236.323 440.749 238.73 441.158 241.151 441.526L241.371 440.08C243.755 440.443 246.152 440.767 248.561 441.051L248.39 442.504C250.804 442.788 253.23 443.033 255.667 443.237L255.789 441.779C258.199 441.981 260.62 442.143 263.051 442.265L262.978 443.726C265.4 443.847 267.833 443.929 270.276 443.969L270.3 442.506C271.514 442.527 272.729 442.537 273.948 442.537C275.166 442.537 276.382 442.527 277.595 442.506L277.619 443.969C280.062 443.929 282.495 443.847 284.917 443.726L284.844 442.265C287.276 442.143 289.697 441.981 292.106 441.779L292.228 443.237C294.666 443.033 297.092 442.788 299.505 442.504L299.334 441.051C301.743 440.767 304.14 440.443 306.524 440.08L306.744 441.526C309.165 441.158 311.572 440.749 313.965 440.3L313.696 438.862C316.082 438.415 318.455 437.928 320.813 437.403L321.131 438.831C323.515 438.3 325.884 437.729 328.236 437.12L327.87 435.703C330.221 435.095 332.556 434.447 334.875 433.761L335.29 435.164C337.633 434.471 339.96 433.739 342.269 432.97L341.807 431.581C344.107 430.815 346.39 430.01 348.655 429.168L349.165 430.539C351.455 429.688 353.726 428.799 355.978 427.873L355.421 426.52C357.665 425.597 359.89 424.638 362.094 423.642L362.697 424.976C364.921 423.971 367.126 422.929 369.309 421.852L368.662 420.54C370.836 419.467 372.988 418.359 375.119 417.215L375.811 418.505C377.963 417.35 380.093 416.16 382.2 414.935L381.464 413.67C383.56 412.452 385.633 411.199 387.682 409.913L388.46 411.152C390.527 409.855 392.569 408.524 394.587 407.16L393.768 405.948C395.776 404.59 397.759 403.199 399.717 401.776L400.578 402.959C402.551 401.525 404.5 400.058 406.421 398.559L405.521 397.405C407.432 395.915 409.316 394.393 411.173 392.84L412.112 393.963C413.983 392.398 415.827 390.802 417.643 389.176L416.667 388.086C418.472 386.47 420.249 384.824 421.997 383.148L423.01 384.205C424.77 382.517 426.502 380.8 428.204 379.054L427.156 378.033C428.847 376.299 430.508 374.536 432.139 372.745L433.221 373.73C434.862 371.928 436.474 370.097 438.053 368.239L436.939 367.291C438.507 365.447 440.045 363.575 441.55 361.677L442.697 362.587C444.212 360.677 445.695 358.741 447.145 356.779L445.968 355.91C447.407 353.963 448.814 351.991 450.187 349.994L451.393 350.823C452.773 348.816 454.12 346.783 455.433 344.727L454.2 343.94C455.502 341.9 456.771 339.836 458.004 337.75L459.264 338.495C460.504 336.397 461.709 334.276 462.879 332.133L461.595 331.432C462.753 329.309 463.876 327.164 464.963 324.998L466.271 325.655C467.363 323.478 468.42 321.28 469.439 319.062L468.109 318.451C469.119 316.253 470.093 314.035 471.028 311.797L472.378 312.361C473.318 310.115 474.22 307.85 475.084 305.565L473.715 305.048C474.57 302.788 475.387 300.509 476.165 298.212L477.551 298.682C478.333 296.377 479.076 294.053 479.78 291.713L478.379 291.292C479.075 288.977 479.733 286.645 480.351 284.297L481.766 284.67C482.386 282.319 482.966 279.952 483.506 277.571L482.078 277.247C482.613 274.891 483.107 272.52 483.562 270.135L484.999 270.409C485.455 268.018 485.871 265.612 486.245 263.193L484.799 262.969C485.169 260.586 485.498 258.19 485.787 255.781L487.24 255.956C487.529 253.542 487.778 251.117 487.986 248.679L486.528 248.555C486.733 246.146 486.898 243.726 487.022 241.295L488.483 241.369C488.606 238.947 488.689 236.514 488.73 234.071L487.267 234.047C487.288 232.834 487.298 231.618 487.298 230.4C487.298 229.182 487.288 227.966 487.267 226.753L488.73 226.728C488.689 224.286 488.606 221.853 488.483 219.431L487.021 219.505C486.898 217.074 486.733 214.654 486.528 212.245L487.986 212.12C487.778 209.683 487.529 207.257 487.24 204.844L485.787 205.018C485.498 202.61 485.169 200.214 484.799 197.831L486.245 197.607C485.871 195.188 485.455 192.782 484.999 190.391L483.562 190.665C483.107 188.279 482.613 185.909 482.078 183.553L483.506 183.229C482.966 180.847 482.386 178.481 481.766 176.13L480.351 176.503C479.733 174.155 479.075 171.823 478.379 169.508L479.78 169.087C479.076 166.746 478.333 164.423 477.551 162.118L476.165 162.587C475.387 160.291 474.57 158.012 473.715 155.752L475.084 155.234C474.22 152.95 473.318 150.685 472.378 148.439L471.028 149.003C470.093 146.765 469.119 144.547 468.109 142.348L469.439 141.738C468.42 139.519 467.364 137.322 466.271 135.145L464.963 135.802C463.876 133.636 462.753 131.491 461.595 129.368L462.879 128.667C461.709 126.524 460.504 124.403 459.264 122.305L458.004 123.05C456.771 120.964 455.502 118.9 454.2 116.86L455.433 116.073C454.12 114.017 452.773 111.984 451.393 109.977L450.187 110.806C448.814 108.809 447.407 106.837 445.968 104.89L447.145 104.021C445.695 102.059 444.212 100.123 442.697 98.213L441.55 99.1224C440.045 97.2248 438.507 95.3533 436.939 93.5088L438.054 92.5608C436.474 90.703 434.862 88.8723 433.221 87.0697L432.139 88.0549C430.508 86.2642 428.847 84.5014 427.156 82.7671L428.204 81.7457C426.502 79.9998 424.77 78.2827 423.01 76.5952L421.997 77.6516C420.249 75.976 418.472 74.3297 416.667 72.7137L417.643 71.6236C415.827 69.9974 413.983 68.4017 412.112 66.8371L411.173 67.9597C409.316 66.407 407.432 64.8852 405.522 63.3951L406.422 62.2413C404.5 60.7423 402.551 59.2751 400.578 57.8406L399.717 59.0242C397.759 57.601 395.776 56.2101 393.768 54.8524L394.587 53.6402C392.569 52.2758 390.527 50.9446 388.46 49.6475L387.682 50.8868C385.633 49.6004 383.56 48.3477 381.464 47.1296L382.2 45.8645C380.093 44.6399 377.963 43.4499 375.811 42.2954L375.119 43.5848C372.988 42.4414 370.836 41.3329 368.662 40.2603L369.309 38.9481C367.126 37.8707 364.921 36.8292 362.697 35.8243L362.094 37.1578C359.89 36.162 357.665 35.2024 355.421 34.2798L355.978 32.9265C353.726 32.0006 351.455 31.1117 349.165 30.2605L348.655 31.632C346.39 30.7901 344.107 29.9853 341.807 29.2184L342.269 27.8303C339.96 27.0605 337.633 26.3287 335.29 25.6356L334.875 27.0388C332.556 26.353 330.221 25.7053 327.87 25.0965L328.236 23.68C325.884 23.0707 323.515 22.5001 321.131 21.9689L320.813 23.3971C318.455 22.8717 316.082 22.385 313.696 21.9379L313.965 20.4996C311.572 20.0513 309.165 19.6424 306.744 19.2737L306.524 20.7202C304.14 20.3571 301.743 20.0332 299.334 19.7492L299.505 18.296C297.092 18.0115 294.666 17.7667 292.228 17.5625L292.106 19.0206C289.697 18.8187 287.276 18.6567 284.844 18.535L284.917 17.0736C282.495 16.9525 280.062 16.8712 277.619 16.8305L277.595 18.2936C276.382 18.2733 275.166 18.2632 273.948 18.2632C272.729 18.2632 271.514 18.2733 270.3 18.2936L270.276 16.8305C267.833 16.8712 265.4 16.9525 262.978 17.0736L263.051 18.535C260.619 18.6567 258.199 18.8188 255.789 19.0207L255.667 17.5625C253.23 17.7668 250.804 18.0115 248.39 18.296L248.561 19.7492C246.152 20.0332 243.755 20.3571 241.371 20.7202L241.151 19.2737C238.73 19.6424 236.323 20.0513 233.93 20.4996L234.199 21.9379C231.813 22.385 229.44 22.8717 227.082 23.3971L226.764 21.9689C224.38 22.5001 222.012 23.0707 219.659 23.68L220.026 25.0965C217.674 25.7053 215.339 26.353 213.02 27.0388L212.605 25.6356C210.262 26.3287 207.935 27.0605 205.626 27.8302L206.089 29.2184C203.788 29.9853 201.505 30.79 199.24 31.632L198.73 30.2604C196.441 31.1116 194.17 32.0005 191.918 32.9264L192.474 34.2798C190.23 35.2024 188.006 36.162 185.801 37.1578L185.199 35.8242C182.974 36.8291 180.769 37.8707 178.586 38.9481L179.233 40.2603C177.06 41.3329 174.907 42.4413 172.776 43.5847L172.084 42.2953C169.932 43.4499 167.803 44.6398 165.696 45.8645L166.431 47.1295C164.335 48.3477 162.262 49.6004 160.213 50.8868L159.435 49.6474C157.369 50.9445 155.326 52.2757 153.308 53.6402L154.128 54.8524C152.12 56.21 150.136 57.6009 148.178 59.0242L147.318 57.8405C145.344 59.275 143.396 60.7422 141.474 62.2413L142.374 63.395C140.463 64.8851 138.579 66.4069 136.722 67.9596L135.784 66.837C133.912 68.4016 132.068 69.9974 130.252 71.6235L131.228 72.7136C129.423 74.3297 127.646 75.9759 125.898 77.6516L124.885 76.5952C123.125 78.2827 121.393 79.9997 119.691 81.7456L120.739 82.767C119.048 84.5013 117.387 86.2642 115.756 88.0548L114.675 87.0696C113.033 88.8723 111.422 90.7029 109.842 92.5608L110.956 93.5087C109.388 95.3532 107.851 97.2247 106.345 99.1224L105.199 98.2129C103.684 100.123 102.201 102.059 100.75 104.021L101.927 104.89C100.488 106.837 99.0814 108.809 97.7084 110.806L96.5027 109.977C95.122 111.984 93.7748 114.017 92.462 116.073L93.6953 116.86C92.393 118.9 91.1247 120.963 89.8913 123.05L88.6317 122.305C87.3913 124.403 86.1859 126.524 85.0163 128.667L86.3007 129.368C85.1421 131.491 84.019 133.636 82.9319 135.801L81.6242 135.145C80.5317 137.322 79.4756 139.519 78.4565 141.738L79.7861 142.348C78.7761 144.547 77.8027 146.765 76.8668 149.003L75.5168 148.439C74.5774 150.685 73.6754 152.95 72.8117 155.234L74.1804 155.752C73.3256 158.012 72.5086 160.291 71.73 162.587L70.3442 162.118C69.5624 164.423 68.8192 166.746 68.1152 169.086L69.5164 169.508C68.8199 171.823 68.1621 174.155 67.5438 176.503L66.1288 176.13C65.5096 178.481 64.9296 180.847 64.3897 183.229L65.8168 183.553C65.2827 185.909 64.788 188.28 64.3335 190.665L62.8961 190.391C62.4404 192.782 62.0247 195.188 61.6499 197.607L63.0959 197.831C62.7266 200.214 62.3972 202.61 62.1085 205.018L60.6556 204.844C60.3662 207.258 60.1173 209.683 59.9096 212.12L61.3676 212.245C61.1623 214.654 60.9974 217.074 60.8737 219.505L59.4124 219.431Z" stroke="#FAC300" stroke-width="2.92653" stroke-dasharray="7.27 7.27"/>
<path d="M-58.9217 376.176C-59.0153 378.578 -59.0781 380.987 -59.1095 383.404L-57.6464 383.423C-57.662 384.625 -57.6698 385.829 -57.6698 387.035C-57.6698 388.241 -57.662 389.444 -57.6464 390.647L-59.1095 390.666C-59.0781 393.082 -59.0153 395.492 -58.9217 397.893L-57.4596 397.836C-57.3659 400.239 -57.2411 402.634 -57.0856 405.02L-58.5457 405.115C-58.3886 407.526 -58.2003 409.928 -57.9812 412.321L-56.524 412.188C-56.3048 414.582 -56.0547 416.967 -55.7739 419.344L-57.2271 419.515C-56.9437 421.913 -56.6295 424.301 -56.2846 426.68L-54.8365 426.47C-54.4915 428.849 -54.1158 431.219 -53.7097 433.578L-55.1517 433.826C-54.7424 436.204 -54.3024 438.572 -53.8322 440.929L-52.3972 440.642C-51.9268 443 -51.4259 445.347 -50.8951 447.682L-52.322 448.007C-51.7874 450.358 -51.2225 452.699 -50.6278 455.028L-49.2101 454.666C-48.6152 456.995 -47.9904 459.312 -47.336 461.617L-48.7436 462.017C-48.0851 464.336 -47.3969 466.643 -46.6793 468.937L-45.2828 468.5C-44.5651 470.794 -43.8179 473.075 -43.0416 475.343L-44.4261 475.817C-43.6451 478.098 -42.8349 480.366 -41.9959 482.621L-40.6246 482.11C-39.7866 484.361 -38.9199 486.599 -38.0246 488.821L-39.3819 489.368C-38.4808 491.605 -37.5511 493.828 -36.5932 496.036L-35.2508 495.454C-34.2953 497.656 -33.3115 499.843 -32.3 502.015L-33.6265 502.633C-32.6081 504.819 -31.5617 506.991 -30.4878 509.146L-29.1782 508.493C-28.108 510.641 -27.0103 512.772 -25.8855 514.888L-27.1775 515.575C-26.045 517.705 -24.8853 519.818 -23.6988 521.914L-22.4254 521.193C-21.2438 523.281 -20.0355 525.351 -18.801 527.404L-20.0551 528.159C-18.8121 530.226 -17.5425 532.275 -16.2471 534.307L-15.0133 533.52C-13.724 535.542 -12.4087 537.546 -11.068 539.532L-12.2807 540.351C-10.9311 542.35 -9.55576 544.33 -8.15524 546.292L-6.96439 545.441C-5.57098 547.393 -4.15253 549.325 -2.70947 551.238L-3.87766 552.119C-2.42548 554.045 -0.948547 555.95 0.552704 557.836L1.69748 556.925C3.19098 558.801 4.70865 560.657 6.25003 562.492L5.12943 563.433C6.67972 565.28 8.25388 567.105 9.85141 568.91L10.9471 567.94C12.5363 569.736 14.1488 571.51 15.7841 573.264L14.714 574.262C16.3581 576.024 18.0251 577.766 19.7146 579.485L20.7583 578.459C22.4386 580.17 24.1413 581.858 25.8658 583.524L24.8491 584.576C26.5825 586.251 28.3379 587.903 30.1148 589.533L31.1038 588.454C32.8704 590.074 34.6584 591.672 36.4673 593.246L35.5067 594.35C37.3249 595.932 39.164 597.491 41.0236 599.026L41.9552 597.898C43.8032 599.423 45.6716 600.925 47.5599 602.403L46.658 603.556C48.5559 605.041 50.4739 606.503 52.4113 607.939L53.283 606.764C55.2073 608.191 57.1511 609.594 59.1138 610.972L58.273 612.169C60.2453 613.554 62.2365 614.914 64.2463 616.248L65.0555 615.029C67.0515 616.354 69.0658 617.653 71.0981 618.927L70.3208 620.167C72.3619 621.447 74.4211 622.701 76.4977 623.928L77.2423 622.669C79.3046 623.888 81.3843 625.081 83.4809 626.248L82.7693 627.526C84.8737 628.697 86.995 629.842 89.1328 630.959L89.8106 629.663C91.934 630.772 94.0736 631.856 96.2292 632.912L95.5854 634.226C97.7472 635.285 99.9248 636.317 102.118 637.321L102.727 635.99C104.906 636.988 107.1 637.958 109.309 638.9L108.735 640.246C110.948 641.19 113.176 642.106 115.418 642.994L115.957 641.634C118.185 642.516 120.428 643.37 122.685 644.196L122.182 645.57C124.44 646.397 126.712 647.194 128.997 647.963L129.464 646.577C131.735 647.341 134.02 648.077 136.318 648.783L135.888 650.182C138.185 650.889 140.496 651.566 142.818 652.214L143.212 650.805C145.519 651.449 147.839 652.064 150.171 652.65L149.814 654.069C152.146 654.654 154.489 655.21 156.843 655.736L157.162 654.308C159.499 654.83 161.848 655.323 164.207 655.786L163.925 657.222C166.284 657.684 168.653 658.117 171.033 658.52L171.277 657.077C173.637 657.476 176.007 657.846 178.388 658.185L178.181 659.634C180.561 659.973 182.95 660.282 185.349 660.561L185.518 659.107C187.894 659.383 190.28 659.629 192.674 659.845L192.543 661.302C194.937 661.518 197.34 661.703 199.751 661.857L199.845 660.397C202.231 660.55 204.626 660.673 207.029 660.765L206.973 662.227C209.374 662.319 211.784 662.381 214.201 662.412L214.219 660.948C215.422 660.964 216.626 660.972 217.832 660.972C219.038 660.972 220.242 660.964 221.444 660.948L221.462 662.412C223.879 662.381 226.289 662.319 228.691 662.227L228.634 660.765C231.037 660.673 233.432 660.55 235.819 660.397L235.912 661.857C238.323 661.703 240.726 661.518 243.12 661.302L242.989 659.845C245.383 659.629 247.769 659.383 250.146 659.107L250.314 660.561C252.713 660.282 255.103 659.973 257.482 659.634L257.276 658.185C259.656 657.846 262.026 657.476 264.386 657.077L264.63 658.52C267.01 658.117 269.379 657.684 271.738 657.222L271.456 655.786C273.816 655.323 276.164 654.83 278.501 654.308L278.82 655.736C281.175 655.21 283.518 654.654 285.849 654.069L285.492 652.65C287.824 652.064 290.144 651.449 292.452 650.805L292.845 652.215C295.168 651.566 297.478 650.889 299.775 650.182L299.345 648.783C301.643 648.077 303.928 647.341 306.199 646.577L306.666 647.964C308.951 647.195 311.223 646.397 313.481 645.57L312.978 644.196C315.235 643.37 317.478 642.516 319.706 641.634L320.245 642.994C322.487 642.106 324.715 641.19 326.928 640.246L326.354 638.9C328.563 637.958 330.757 636.988 332.936 635.99L333.545 637.321C335.738 636.317 337.916 635.285 340.078 634.226L339.434 632.912C341.59 631.856 343.729 630.773 345.853 629.663L346.53 630.959C348.668 629.842 350.79 628.697 352.894 627.526L352.182 626.248C354.279 625.081 356.359 623.888 358.421 622.669L359.166 623.928C361.242 622.701 363.301 621.447 365.342 620.167L364.565 618.927C366.597 617.653 368.612 616.354 370.608 615.029L371.417 616.248C373.427 614.914 375.418 613.554 377.39 612.17L376.549 610.972C378.512 609.594 380.456 608.191 382.38 606.764L383.252 607.94C385.189 606.503 387.107 605.041 389.005 603.556L388.103 602.404C389.992 600.925 391.86 599.423 393.708 597.898L394.64 599.026C396.499 597.491 398.338 595.932 400.157 594.35L399.196 593.246C401.005 591.672 402.793 590.074 404.559 588.454L405.548 589.533C407.325 587.903 409.081 586.251 410.814 584.576L409.797 583.524C411.522 581.858 413.225 580.17 414.905 578.46L415.949 579.485C417.638 577.766 419.305 576.025 420.949 574.262L419.879 573.264C421.514 571.51 423.127 569.736 424.716 567.94L425.812 568.91C427.409 567.105 428.984 565.28 430.534 563.433L429.413 562.492C430.955 560.657 432.472 558.801 433.966 556.925L435.111 557.836C436.612 555.95 438.089 554.045 439.541 552.12L438.373 551.238C439.816 549.325 441.234 547.393 442.628 545.441L443.818 546.292C445.219 544.33 446.594 542.35 447.944 540.351L446.731 539.532C448.072 537.546 449.387 535.542 450.677 533.52L451.91 534.307C453.206 532.276 454.475 530.226 455.718 528.159L454.464 527.405C455.699 525.351 456.907 523.281 458.089 521.193L459.362 521.914C460.549 519.818 461.708 517.705 462.841 515.575L461.549 514.888C462.674 512.773 463.771 510.641 464.841 508.493L466.151 509.146C467.225 506.991 468.271 504.82 469.29 502.633L467.963 502.015C468.975 499.843 469.959 497.656 470.914 495.454L472.256 496.036C473.214 493.828 474.144 491.606 475.045 489.368L473.688 488.822C474.583 486.599 475.45 484.362 476.288 482.11L477.659 482.621C478.498 480.367 479.308 478.099 480.089 475.817L478.705 475.343C479.481 473.075 480.228 470.794 480.946 468.5L482.343 468.937C483.06 466.643 483.748 464.336 484.407 462.017L482.999 461.617C483.654 459.312 484.279 456.995 484.873 454.666L486.291 455.028C486.886 452.699 487.451 450.359 487.985 448.007L486.558 447.682C487.089 445.347 487.59 443 488.06 440.643L489.495 440.929C489.966 438.572 490.406 436.204 490.815 433.826L489.373 433.578C489.779 431.219 490.155 428.849 490.5 426.47L491.948 426.68C492.293 424.302 492.607 421.913 492.89 419.515L491.437 419.344C491.718 416.968 491.968 414.582 492.187 412.188L493.645 412.321C493.864 409.928 494.052 407.526 494.209 405.115L492.749 405.02C492.904 402.634 493.029 400.239 493.123 397.836L494.585 397.893C494.679 395.492 494.741 393.083 494.773 390.666L493.31 390.647C493.325 389.445 493.333 388.241 493.333 387.035C493.333 385.829 493.325 384.625 493.31 383.423L494.773 383.404C494.741 380.987 494.679 378.578 494.585 376.176L493.123 376.233C493.029 373.831 492.904 371.436 492.749 369.05L494.209 368.955C494.052 366.544 493.864 364.142 493.645 361.748L492.187 361.882C491.968 359.487 491.718 357.102 491.437 354.726L492.89 354.554C492.607 352.157 492.293 349.768 491.948 347.39L490.5 347.6C490.155 345.22 489.779 342.851 489.373 340.492L490.815 340.244C490.406 337.865 489.966 335.498 489.495 333.141L488.06 333.427C487.59 331.069 487.089 328.723 486.558 326.387L487.985 326.063C487.451 323.711 486.886 321.371 486.291 319.042L484.873 319.404C484.279 317.075 483.654 314.757 482.999 312.452L484.407 312.053C483.748 309.734 483.06 307.427 482.343 305.133L480.946 305.57C480.228 303.276 479.481 300.994 478.705 298.727L480.089 298.253C479.308 295.971 478.498 293.703 477.659 291.449L476.288 291.959C475.45 289.708 474.583 287.471 473.688 285.248L475.045 284.701C474.144 282.464 473.214 280.241 472.256 278.034L470.914 278.616C469.959 276.414 468.975 274.226 467.963 272.054L469.29 271.437C468.271 269.25 467.225 267.079 466.151 264.924L464.841 265.577C463.771 263.429 462.674 261.297 461.549 259.182L462.841 258.495C461.708 256.365 460.549 254.252 459.362 252.155L458.089 252.876C456.907 250.789 455.699 248.718 454.464 246.665L455.718 245.911C454.475 243.844 453.206 241.794 451.91 239.763L450.677 240.549C449.387 238.527 448.072 236.523 446.731 234.538L447.944 233.719C446.594 231.72 445.219 229.739 443.819 227.778L442.628 228.628C441.234 226.677 439.816 224.744 438.373 222.831L439.541 221.95C438.089 220.025 436.612 218.119 435.111 216.234L433.966 217.145C432.472 215.269 430.955 213.413 429.413 211.577L430.534 210.636C428.984 208.79 427.409 206.964 425.812 205.159L424.716 206.129C423.127 204.334 421.515 202.559 419.879 200.806L420.949 199.808C419.305 198.045 417.638 196.304 415.949 194.585L414.905 195.61C413.225 193.9 411.522 192.212 409.798 190.546L410.814 189.493C409.081 187.819 407.325 186.166 405.549 184.537L404.56 185.615C402.793 183.995 401.005 182.398 399.196 180.824L400.157 179.72C398.338 178.138 396.499 176.579 394.64 175.044L393.708 176.172C391.86 174.646 389.992 173.144 388.103 171.666L389.005 170.514C387.107 169.028 385.189 167.567 383.252 166.13L382.38 167.305C380.456 165.878 378.512 164.476 376.55 163.098L377.39 161.9C375.418 160.516 373.427 159.156 371.417 157.822L370.608 159.041C368.612 157.716 366.597 156.416 364.565 155.142L365.342 153.902C363.301 152.623 361.242 151.369 359.166 150.141L358.421 151.401C356.359 150.182 354.279 148.989 352.182 147.822L352.894 146.543C350.79 145.372 348.668 144.228 346.531 143.11L345.853 144.407C343.729 143.297 341.59 142.214 339.434 141.158L340.078 139.844C337.916 138.785 335.739 137.753 333.545 136.749L332.936 138.079C330.758 137.082 328.563 136.112 326.354 135.169L326.929 133.823C324.715 132.879 322.488 131.963 320.245 131.075L319.707 132.436C317.478 131.553 315.235 130.699 312.979 129.873L313.481 128.499C311.223 127.673 308.951 126.875 306.666 126.106L306.199 127.493C303.928 126.729 301.643 125.993 299.345 125.286L299.775 123.888C297.478 123.181 295.168 122.503 292.845 121.855L292.452 123.264C290.144 122.62 287.824 122.005 285.493 121.42L285.849 120.001C283.518 119.416 281.175 118.86 278.82 118.334L278.501 119.762C276.164 119.239 273.816 118.747 271.457 118.284L271.738 116.848C269.38 116.385 267.01 115.952 264.63 115.55L264.386 116.992C262.026 116.593 259.656 116.224 257.276 115.884L257.482 114.436C255.103 114.097 252.713 113.787 250.315 113.509L250.146 114.962C247.769 114.686 245.384 114.44 242.989 114.225L243.12 112.767C240.726 112.552 238.323 112.367 235.912 112.212L235.819 113.672C233.432 113.52 231.037 113.397 228.635 113.305L228.691 111.843C226.289 111.75 223.88 111.689 221.463 111.658L221.444 113.121C220.242 113.106 219.038 113.098 217.832 113.098C216.626 113.098 215.422 113.106 214.22 113.121L214.201 111.658C211.784 111.689 209.374 111.75 206.973 111.843L207.029 113.305C204.626 113.397 202.231 113.52 199.845 113.672L199.751 112.212C197.34 112.367 194.937 112.552 192.543 112.767L192.675 114.225C190.28 114.44 187.894 114.686 185.518 114.962L185.349 113.509C182.95 113.787 180.561 114.097 178.181 114.436L178.388 115.884C176.008 116.224 173.637 116.593 171.277 116.992L171.033 115.55C168.653 115.952 166.284 116.385 163.925 116.848L164.207 118.284C161.848 118.747 159.499 119.239 157.162 119.762L156.843 118.334C154.489 118.86 152.146 119.415 149.815 120.001L150.171 121.42C147.839 122.005 145.519 122.62 143.212 123.264L142.818 121.855C140.496 122.503 138.186 123.181 135.888 123.888L136.318 125.286C134.02 125.993 131.736 126.729 129.464 127.493L128.997 126.106C126.712 126.875 124.44 127.673 122.182 128.499L122.685 129.873C120.428 130.699 118.185 131.553 115.957 132.436L115.418 131.075C113.176 131.963 110.948 132.879 108.735 133.823L109.309 135.169C107.1 136.111 104.906 137.082 102.727 138.079L102.118 136.749C99.9249 137.753 97.7473 138.785 95.5856 139.844L96.2293 141.158C94.0738 142.214 91.9341 143.297 89.8108 144.407L89.1329 143.11C86.9951 144.228 84.8738 145.372 82.7695 146.543L83.481 147.822C81.3844 148.989 79.3047 150.182 77.2424 151.401L76.4978 150.141C74.4212 151.369 72.3621 152.623 70.321 153.902L71.0982 155.142C69.0659 156.416 67.0516 157.716 65.0557 159.041L64.2464 157.822C62.2366 159.156 60.2454 160.515 58.2732 161.9L59.1139 163.098C57.1512 164.476 55.2075 165.878 53.2831 167.305L52.4114 166.13C50.474 167.567 48.5561 169.028 46.6581 170.514L47.5601 171.666C45.6718 173.144 43.8033 174.646 41.9553 176.172L41.0237 175.043C39.1641 176.579 37.325 178.138 35.5068 179.72L36.4674 180.824C34.6585 182.398 32.8705 183.995 31.1039 185.615L30.1149 184.537C28.338 186.166 26.5826 187.819 24.8492 189.493L25.8659 190.546C24.1414 192.212 22.4387 193.9 20.7584 195.61L19.7147 194.584C18.0252 196.304 16.3582 198.045 14.7141 199.808L15.7841 200.806C14.1489 202.559 12.5364 204.334 10.9472 206.129L9.8515 205.159C8.25397 206.964 6.67981 208.79 5.12952 210.636L6.25012 211.577C4.70874 213.413 3.19104 215.269 1.69754 217.145L0.552765 216.233C-0.948486 218.119 -2.42538 220.025 -3.87756 221.95L-2.70938 222.831C-4.15244 224.744 -5.57089 226.677 -6.96429 228.628L-8.15515 227.778C-9.55566 229.739 -10.931 231.72 -12.2807 233.719L-11.0679 234.538C-12.4086 236.523 -13.7239 238.527 -15.0132 240.549L-16.247 239.762C-17.5425 241.794 -18.812 243.844 -20.055 245.911L-18.801 246.665C-20.0355 248.718 -21.2437 250.789 -22.4253 252.876L-23.6987 252.155C-24.8853 254.252 -26.045 256.365 -27.1774 258.495L-25.8854 259.182C-27.0102 261.297 -28.1078 263.429 -29.178 265.576L-30.4877 264.924C-31.5616 267.079 -32.608 269.25 -33.6264 271.437L-32.2999 272.054C-33.3115 274.226 -34.2952 276.414 -35.2507 278.616L-36.5931 278.033C-37.5511 280.241 -38.4808 282.464 -39.3818 284.701L-38.0245 285.248C-38.9198 287.471 -39.7866 289.708 -40.6245 291.959L-41.9958 291.449C-42.8349 293.703 -43.6451 295.971 -44.426 298.253L-43.0416 298.726C-43.8179 300.994 -44.5651 303.275 -45.2827 305.57L-46.6793 305.133C-47.3969 307.427 -48.0851 309.733 -48.7435 312.053L-47.3359 312.452C-47.9904 314.757 -48.6152 317.075 -49.21 319.404L-50.6278 319.042C-51.2225 321.37 -51.7873 323.711 -52.3219 326.063L-50.8951 326.387C-51.4259 328.723 -51.9267 331.069 -52.3971 333.427L-53.8321 333.141C-54.3024 335.498 -54.7424 337.865 -55.1517 340.243L-53.7097 340.492C-54.1157 342.851 -54.4915 345.22 -54.8364 347.599L-56.2845 347.39C-56.6294 349.768 -56.9437 352.156 -57.2271 354.554L-55.7739 354.726C-56.0546 357.102 -56.3048 359.487 -56.524 361.882L-57.9811 361.748C-58.2003 364.142 -58.3886 366.544 -58.5457 368.954L-57.0856 369.05C-57.2411 371.436 -57.3659 373.831 -57.4595 376.233L-58.9217 376.176Z" stroke="#FAC300" stroke-width="2.92653" stroke-dasharray="7.27 7.27"/>
<path d="M27.9684 -6.65872C27.8748 -4.25723 27.8121 -1.84784 27.7806 0.569061L29.2438 0.588074C29.2281 1.79019 29.2203 2.99417 29.2203 4.19998C29.2203 5.40573 29.2281 6.60965 29.2438 7.81171L27.7806 7.83072C27.8121 10.2476 27.8748 12.657 27.9684 15.0585L29.4305 15.0015C29.5242 17.4041 29.649 19.7987 29.8046 22.185L28.3444 22.2802C28.5015 24.6909 28.6898 27.0931 28.9089 29.4865L30.3661 29.3531C30.5853 31.7473 30.8354 34.1327 31.1162 36.5087L29.6631 36.6804C29.9464 39.0782 30.2607 41.4666 30.6055 43.8451L32.0536 43.6351C32.3986 46.0144 32.7744 48.3838 33.1804 50.7429L31.7384 50.9911C32.1478 53.3693 32.5877 55.7371 33.058 58.094L34.493 57.8077C34.9634 60.1653 35.4642 62.512 35.9951 64.8474L34.5682 65.1718C35.1028 67.5237 35.6677 69.8642 36.2623 72.1929L37.6801 71.8308C38.2749 74.16 38.8997 76.4774 39.5541 78.7823L38.1465 79.1819C38.805 81.5012 39.4933 83.808 40.2109 86.1019L41.6074 85.665C42.3251 87.9591 43.0722 90.2404 43.8485 92.5082L42.4641 92.9821C43.245 95.2636 44.0552 97.5317 44.8942 99.7858L46.2656 99.2754C47.1035 101.527 47.9703 103.764 48.8655 105.987L47.5082 106.533C48.4093 108.771 49.339 110.993 50.2969 113.201L51.6393 112.619C52.5948 114.821 53.5786 117.008 54.5901 119.18L53.2637 119.798C54.282 121.985 55.3284 124.156 56.4023 126.311L57.712 125.658C58.7822 127.806 59.8799 129.938 61.0046 132.053L59.7126 132.74C60.8451 134.87 62.0048 136.983 63.1913 139.079L64.4648 138.359C65.6463 140.446 66.8546 142.517 68.0891 144.57L66.8351 145.324C68.0781 147.391 69.3476 149.441 70.6431 151.472L71.8768 150.685C73.1662 152.707 74.4814 154.711 75.8221 156.697L74.6094 157.516C75.9591 159.515 77.3344 161.495 78.7349 163.457L79.9258 162.606C81.3192 164.558 82.7376 166.49 84.1807 168.403L83.0125 169.285C84.4647 171.21 85.9416 173.116 87.4428 175.001L88.5876 174.09C90.0811 175.966 91.5988 177.822 93.1402 179.658L92.0196 180.598C93.5699 182.445 95.144 184.271 96.7415 186.075L97.8372 185.106C99.4265 186.901 101.039 188.676 102.674 190.429L101.604 191.427C103.248 193.19 104.915 194.931 106.605 196.65L107.648 195.625C109.329 197.335 111.031 199.023 112.756 200.689L111.739 201.741C113.473 203.416 115.228 205.068 117.005 206.698L117.994 205.619C119.761 207.239 121.549 208.837 123.357 210.411L122.397 211.515C124.215 213.097 126.054 214.656 127.914 216.191L128.845 215.063C130.693 216.588 132.562 218.091 134.45 219.569L133.548 220.721C135.446 222.206 137.364 223.668 139.301 225.105L140.173 223.929C142.097 225.356 144.041 226.759 146.004 228.137L145.163 229.335C147.135 230.719 149.127 232.079 151.136 233.413L151.946 232.194C153.942 233.519 155.956 234.819 157.988 236.093L157.211 237.332C159.252 238.612 161.311 239.866 163.388 241.093L164.132 239.834C166.195 241.053 168.274 242.246 170.371 243.413L169.659 244.691C171.764 245.862 173.885 247.007 176.023 248.124L176.701 246.828C178.824 247.938 180.964 249.021 183.119 250.077L182.476 251.391C184.637 252.45 186.815 253.482 189.008 254.486L189.617 253.155C191.796 254.153 193.99 255.123 196.199 256.066L195.625 257.411C197.838 258.355 200.066 259.272 202.308 260.159L202.847 258.799C205.075 259.681 207.318 260.536 209.575 261.361L209.072 262.736C211.33 263.562 213.602 264.36 215.887 265.129L216.354 263.742C218.626 264.506 220.91 265.242 223.208 265.949L222.778 267.347C225.076 268.054 227.386 268.731 229.708 269.38L230.102 267.97C232.409 268.614 234.729 269.229 237.061 269.815L236.705 271.234C239.036 271.819 241.379 272.375 243.733 272.901L244.052 271.473C246.389 271.995 248.738 272.488 251.097 272.951L250.815 274.387C253.174 274.849 255.543 275.282 257.923 275.685L258.167 274.242C260.527 274.642 262.898 275.011 265.278 275.35L265.071 276.799C267.451 277.138 269.84 277.447 272.239 277.726L272.408 276.272C274.784 276.549 277.17 276.795 279.565 277.01L279.433 278.467C281.827 278.683 284.23 278.868 286.641 279.023L286.735 277.562C289.121 277.715 291.516 277.838 293.919 277.93L293.863 279.392C296.264 279.484 298.674 279.546 301.091 279.577L301.11 278.114C302.312 278.129 303.516 278.137 304.722 278.137C305.928 278.137 307.132 278.129 308.334 278.114L308.353 279.577C310.77 279.546 313.179 279.484 315.581 279.392L315.525 277.93C317.927 277.838 320.322 277.715 322.709 277.562L322.802 279.023C325.213 278.868 327.616 278.683 330.01 278.467L329.879 277.01C332.273 276.795 334.659 276.549 337.036 276.272L337.205 277.726C339.603 277.447 341.993 277.138 344.372 276.799L344.166 275.35C346.546 275.011 348.916 274.642 351.276 274.242L351.52 275.685C353.9 275.282 356.27 274.849 358.628 274.387L358.347 272.951C360.706 272.488 363.054 271.995 365.391 271.473L365.71 272.901C368.065 272.375 370.408 271.819 372.739 271.234L372.383 269.815C374.714 269.229 377.034 268.614 379.342 267.97L379.735 269.38C382.058 268.731 384.368 268.054 386.665 267.347L386.235 265.949C388.533 265.242 390.818 264.506 393.09 263.742L393.556 265.129C395.841 264.36 398.113 263.562 400.371 262.736L399.869 261.361C402.125 260.536 404.368 259.681 406.597 258.799L407.135 260.159C409.378 259.272 411.605 258.355 413.819 257.412L413.244 256.066C415.453 255.123 417.648 254.153 419.826 253.156L420.435 254.486C422.629 253.482 424.806 252.45 426.968 251.391L426.324 250.077C428.48 249.021 430.619 247.938 432.743 246.828L433.421 248.125C435.558 247.007 437.68 245.863 439.784 244.691L439.072 243.413C441.169 242.246 443.249 241.053 445.311 239.834L446.056 241.093C448.132 239.866 450.191 238.612 452.233 237.332L451.455 236.093C453.488 234.819 455.502 233.519 457.498 232.194L458.307 233.413C460.317 232.079 462.308 230.719 464.28 229.335L463.44 228.137C465.402 226.759 467.346 225.357 469.27 223.929L470.142 225.105C472.079 223.668 473.997 222.207 475.895 220.721L474.993 219.569C476.882 218.091 478.75 216.589 480.598 215.063L481.53 216.191C483.389 214.656 485.229 213.097 487.047 211.515L486.086 210.411C487.895 208.837 489.683 207.239 491.45 205.619L492.439 206.698C494.215 205.068 495.971 203.416 497.704 201.741L496.688 200.689C498.412 199.023 500.115 197.335 501.795 195.625L502.839 196.65C504.528 194.931 506.195 193.19 507.839 191.427L506.769 190.429C508.405 188.676 510.017 186.901 511.606 185.106L512.702 186.076C514.299 184.271 515.874 182.445 517.424 180.599L516.303 179.658C517.845 177.822 519.362 175.966 520.856 174.09L522.001 175.001C523.502 173.116 524.979 171.21 526.431 169.285L525.263 168.404C526.706 166.49 528.124 164.558 529.518 162.607L530.709 163.457C532.109 161.495 533.484 159.515 534.834 157.516L533.621 156.697C534.962 154.712 536.277 152.708 537.567 150.686L538.8 151.472C540.096 149.441 541.365 147.391 542.608 145.324L541.354 144.57C542.589 142.517 543.797 140.446 544.979 138.359L546.252 139.079C547.439 136.983 548.598 134.87 549.731 132.74L548.439 132.053C549.564 129.938 550.661 127.806 551.732 125.658L553.041 126.311C554.115 124.156 555.161 121.985 556.18 119.798L554.853 119.18C555.865 117.008 556.849 114.821 557.804 112.619L559.147 113.201C560.105 110.993 561.034 108.771 561.935 106.533L560.578 105.987C561.473 103.764 562.34 101.527 563.178 99.2755L564.549 99.786C565.388 97.5318 566.199 95.2638 566.979 92.9822L565.595 92.5084C566.371 90.2405 567.119 87.9593 567.836 85.6652L569.233 86.1021C569.95 83.8081 570.639 81.5013 571.297 79.1821L569.889 78.7825C570.544 76.4775 571.169 74.1602 571.763 71.831L573.181 72.193C573.776 69.8643 574.341 67.5238 574.875 65.1719L573.449 64.8476C573.979 62.5122 574.48 60.1655 574.951 57.8078L576.386 58.0941C576.856 55.7372 577.296 53.3694 577.705 50.9913L576.263 50.7431C576.669 48.384 577.045 46.0146 577.39 43.6353L578.838 43.8452C579.183 41.4667 579.497 39.0784 579.781 36.6806L578.327 36.5089C578.608 34.1328 578.858 31.7475 579.077 29.3533L580.535 29.4867C580.754 27.0933 580.942 24.691 581.099 22.2803L579.639 22.1852C579.795 19.7989 579.919 17.4042 580.013 15.0016L581.475 15.0587C581.569 12.6572 581.632 10.2478 581.663 7.8309L580.2 7.81189C580.215 6.60977 580.223 5.40579 580.223 4.19998C580.223 2.9942 580.215 1.79025 580.2 0.588196L581.663 0.569183C581.632 -1.84772 581.569 -4.25708 581.475 -6.65857L580.013 -6.60156C579.919 -9.00415 579.795 -11.3988 579.639 -13.785L581.099 -13.8802C580.942 -16.2909 580.754 -18.6932 580.535 -21.0866L579.077 -20.9532C578.858 -23.3474 578.608 -25.7327 578.327 -28.1087L579.781 -28.2805C579.497 -30.6783 579.183 -33.0666 578.838 -35.4452L577.39 -35.2352C577.045 -37.6145 576.669 -39.9839 576.263 -42.343L577.705 -42.5912C577.296 -44.9694 576.856 -47.3371 576.386 -49.6941L574.951 -49.4077C574.48 -51.7654 573.979 -54.1121 573.449 -56.4475L574.875 -56.7718C574.341 -59.1237 573.776 -61.4643 573.181 -63.793L571.764 -63.4309C571.169 -65.7601 570.544 -68.0774 569.889 -70.3824L571.297 -70.782C570.639 -73.1012 569.95 -75.408 569.233 -77.7019L567.836 -77.2651C567.119 -79.5592 566.371 -81.8404 565.595 -84.1083L566.98 -84.5822C566.199 -86.8637 565.388 -89.1317 564.549 -91.3859L563.178 -90.8754C562.34 -93.1266 561.473 -95.3639 560.578 -97.5867L561.935 -98.1334C561.034 -100.371 560.105 -102.593 559.147 -104.801L557.804 -104.219C556.849 -106.421 555.865 -108.608 554.853 -110.78L556.18 -111.398C555.162 -113.585 554.115 -115.756 553.041 -117.911L551.732 -117.258C550.661 -119.406 549.564 -121.538 548.439 -123.653L549.731 -124.34C548.599 -126.47 547.439 -128.583 546.252 -130.679L544.979 -129.959C543.797 -132.046 542.589 -134.117 541.354 -136.17L542.608 -136.924C541.365 -138.991 540.096 -141.041 538.801 -143.072L537.567 -142.286C536.277 -144.308 534.962 -146.312 533.621 -148.297L534.834 -149.116C533.485 -151.115 532.109 -153.095 530.709 -155.057L529.518 -154.206C528.124 -156.158 526.706 -158.09 525.263 -160.004L526.431 -160.885C524.979 -162.81 523.502 -164.716 522.001 -166.601L520.856 -165.69C519.362 -167.566 517.845 -169.422 516.303 -171.258L517.424 -172.199C515.874 -174.045 514.3 -175.871 512.702 -177.675L511.606 -176.706C510.017 -178.501 508.405 -180.276 506.769 -182.029L507.839 -183.027C506.195 -184.79 504.528 -186.531 502.839 -188.25L501.795 -187.225C500.115 -188.935 498.412 -190.623 496.688 -192.289L497.704 -193.341C495.971 -195.016 494.216 -196.668 492.439 -198.298L491.45 -197.219C489.683 -198.839 487.895 -200.437 486.086 -202.011L487.047 -203.115C485.229 -204.697 483.389 -206.256 481.53 -207.791L480.598 -206.663C478.75 -208.189 476.882 -209.691 474.994 -211.169L475.895 -212.321C473.998 -213.806 472.08 -215.268 470.142 -216.705L469.271 -215.529C467.346 -216.957 465.402 -218.359 463.44 -219.737L464.28 -220.935C462.308 -222.319 460.317 -223.679 458.307 -225.013L457.498 -223.794C455.502 -225.119 453.488 -226.419 451.455 -227.693L452.233 -228.932C450.192 -230.212 448.132 -231.466 446.056 -232.693L445.311 -231.434C443.249 -232.653 441.169 -233.846 439.073 -235.013L439.784 -236.291C437.68 -237.462 435.558 -238.607 433.421 -239.725L432.743 -238.428C430.62 -239.538 428.48 -240.621 426.324 -241.677L426.968 -242.991C424.806 -244.05 422.629 -245.082 420.436 -246.086L419.826 -244.756C417.648 -245.753 415.454 -246.723 413.245 -247.666L413.819 -249.011C411.606 -249.955 409.378 -250.872 407.135 -251.759L406.597 -250.399C404.368 -251.281 402.125 -252.136 399.869 -252.961L400.371 -254.336C398.113 -255.162 395.842 -255.96 393.556 -256.729L393.09 -255.342C390.818 -256.106 388.533 -256.842 386.235 -257.549L386.665 -258.947C384.368 -259.654 382.058 -260.331 379.735 -260.98L379.342 -259.57C377.034 -260.214 374.714 -260.829 372.383 -261.415L372.739 -262.834C370.408 -263.419 368.065 -263.975 365.71 -264.501L365.391 -263.073C363.054 -263.595 360.706 -264.088 358.347 -264.551L358.628 -265.987C356.27 -266.449 353.9 -266.882 351.521 -267.285L351.276 -265.842C348.916 -266.242 346.546 -266.611 344.166 -266.95L344.372 -268.399C341.993 -268.738 339.603 -269.047 337.205 -269.326L337.036 -267.873C334.659 -268.149 332.274 -268.395 329.879 -268.61L330.01 -270.067C327.616 -270.283 325.214 -270.468 322.802 -270.623L322.709 -269.162C320.322 -269.315 317.928 -269.438 315.525 -269.53L315.581 -270.992C313.179 -271.084 310.77 -271.146 308.353 -271.177L308.334 -269.714C307.132 -269.729 305.928 -269.737 304.722 -269.737C303.516 -269.737 302.312 -269.729 301.11 -269.714L301.091 -271.177C298.674 -271.146 296.265 -271.084 293.863 -270.992L293.919 -269.53C291.516 -269.438 289.121 -269.315 286.735 -269.162L286.641 -270.623C284.23 -270.468 281.827 -270.283 279.434 -270.067L279.565 -268.61C277.17 -268.395 274.784 -268.149 272.408 -267.873L272.239 -269.326C269.84 -269.047 267.451 -268.738 265.071 -268.399L265.278 -266.95C262.898 -266.611 260.527 -266.242 258.167 -265.842L257.923 -267.285C255.543 -266.882 253.174 -266.45 250.815 -265.987L251.097 -264.551C248.738 -264.088 246.389 -263.595 244.052 -263.073L243.733 -264.501C241.379 -263.975 239.036 -263.419 236.705 -262.834L237.061 -261.415C234.729 -260.829 232.409 -260.214 230.102 -259.57L229.708 -260.98C227.386 -260.331 225.076 -259.654 222.778 -258.947L223.208 -257.549C220.911 -256.842 218.626 -256.106 216.354 -255.342L215.887 -256.729C213.602 -255.96 211.33 -255.162 209.072 -254.336L209.575 -252.961C207.318 -252.136 205.076 -251.281 202.847 -250.399L202.308 -251.759C200.066 -250.872 197.838 -249.956 195.625 -249.012L196.199 -247.666C193.99 -246.723 191.796 -245.753 189.617 -244.756L189.008 -246.086C186.815 -245.082 184.637 -244.05 182.476 -242.991L183.119 -241.677C180.964 -240.621 178.824 -239.538 176.701 -238.428L176.023 -239.725C173.885 -238.607 171.764 -237.463 169.66 -236.292L170.371 -235.013C168.275 -233.846 166.195 -232.653 164.133 -231.434L163.388 -232.694C161.311 -231.466 159.252 -230.212 157.211 -228.932L157.988 -227.693C155.956 -226.419 153.942 -225.119 151.946 -223.794L151.137 -225.013C149.127 -223.679 147.136 -222.319 145.163 -220.935L146.004 -219.737C144.041 -218.359 142.098 -216.957 140.173 -215.529L139.302 -216.705C137.364 -215.268 135.446 -213.807 133.548 -212.321L134.45 -211.169C132.562 -209.691 130.693 -208.189 128.845 -206.663L127.914 -207.791C126.054 -206.256 124.215 -204.697 122.397 -203.115L123.358 -202.011C121.549 -200.437 119.761 -198.839 117.994 -197.219L117.005 -198.298C115.228 -196.668 113.473 -195.016 111.739 -193.342L112.756 -192.289C111.031 -190.623 109.329 -188.935 107.649 -187.225L106.605 -188.25C104.915 -186.531 103.248 -184.79 101.604 -183.027L102.674 -182.029C101.039 -180.276 99.4265 -178.501 97.8373 -176.706L96.7416 -177.676C95.1441 -175.871 93.5699 -174.045 92.0197 -172.199L93.1403 -171.258C91.5989 -169.422 90.0812 -167.566 88.5877 -165.69L87.4429 -166.601C85.9417 -164.716 84.4648 -162.81 83.0126 -160.885L84.1808 -160.004C82.7377 -158.09 81.3192 -156.158 79.9258 -154.207L78.735 -155.057C77.3345 -153.095 75.9591 -151.115 74.6095 -149.116L75.8222 -148.297C74.4815 -146.312 73.1663 -144.308 71.8769 -142.286L70.6432 -143.072C69.3477 -141.041 68.0781 -138.991 66.8351 -136.924L68.0892 -136.17C66.8547 -134.117 65.6464 -132.046 64.4648 -129.959L63.1914 -130.679C62.0049 -128.583 60.8452 -126.47 59.7127 -124.34L61.0047 -123.653C59.8799 -121.538 58.7823 -119.406 57.7121 -117.258L56.4024 -117.911C55.3285 -115.756 54.2821 -113.585 53.2637 -111.398L54.5902 -110.78C53.5787 -108.609 52.5949 -106.421 51.6394 -104.219L50.297 -104.801C49.3391 -102.594 48.4094 -100.371 47.5083 -98.1335L48.8656 -97.5869C47.9703 -95.364 47.1035 -93.1268 46.2656 -90.8756L44.8943 -91.386C44.0552 -89.1319 43.2451 -86.8638 42.4641 -84.5823L43.8485 -84.1084C43.0723 -81.8406 42.3251 -79.5593 41.6074 -77.2652L40.2109 -77.7021C39.4933 -75.4081 38.8051 -73.1014 38.1466 -70.7822L39.5542 -70.3825C38.8998 -68.0775 38.275 -65.7602 37.6801 -63.431L36.2623 -63.7931C35.6677 -61.4644 35.1028 -59.1239 34.5682 -56.7719L35.9951 -56.4476C35.4642 -54.1122 34.9634 -51.7655 34.493 -49.4079L33.058 -49.6942C32.5878 -47.3373 32.1478 -44.9695 31.7384 -42.5913L33.1805 -42.3431C32.7744 -39.984 32.3987 -37.6146 32.0537 -35.2353L30.6056 -35.4453C30.2607 -33.0668 29.9464 -30.6784 29.6631 -28.2806L31.1162 -28.1089C30.8355 -25.7329 30.5853 -23.3476 30.3661 -20.9533L28.909 -21.0867C28.6899 -18.6933 28.5015 -16.291 28.3444 -13.8803L29.8046 -13.7852C29.649 -11.3989 29.5242 -9.00427 29.4306 -6.60168L27.9684 -6.65872Z" stroke="#FAC300" stroke-width="2.92653" stroke-dasharray="7.27 7.27"/>
<path d="M-150.541 -66.9135C-150.635 -64.512 -150.698 -62.1026 -150.729 -59.6857L-149.266 -59.6667C-149.282 -58.4646 -149.289 -57.2606 -149.289 -56.0548C-149.289 -54.849 -149.282 -53.6451 -149.266 -52.4431L-150.729 -52.424C-150.698 -50.0071 -150.635 -47.5977 -150.541 -45.1963L-149.079 -45.2533C-148.986 -42.8507 -148.861 -40.4561 -148.705 -38.0698L-150.165 -37.9746C-150.008 -35.5639 -149.82 -33.1617 -149.601 -30.7682L-148.144 -30.9016C-147.924 -28.5074 -147.674 -26.1221 -147.394 -23.7461L-148.847 -23.5744C-148.563 -21.1766 -148.249 -18.7882 -147.904 -16.4097L-146.456 -16.6196C-146.111 -14.2404 -145.735 -11.8709 -145.329 -9.51187L-146.771 -9.26367C-146.362 -6.8855 -145.922 -4.5177 -145.452 -2.16077L-144.017 -2.44708C-143.546 -0.089447 -143.046 2.25726 -142.515 4.59265L-143.942 4.91699C-143.407 7.26892 -142.842 9.60944 -142.247 11.9381L-140.83 11.5761C-140.235 13.9053 -139.61 16.2226 -138.956 18.5276L-140.363 18.9272C-139.705 21.2464 -139.016 23.5532 -138.299 25.8471L-136.902 25.4102C-136.185 27.7044 -135.438 29.9856 -134.661 32.2534L-136.046 32.7273C-135.265 35.0089 -134.455 37.2769 -133.616 39.5311L-132.244 39.0206C-131.406 41.2718 -130.539 43.509 -129.644 45.7319L-131.002 46.2786C-130.1 48.5158 -129.171 50.7386 -128.213 52.9464L-126.87 52.364C-125.915 54.5662 -124.931 56.7536 -123.92 58.9255L-125.246 59.5433C-124.228 61.7299 -123.181 63.901 -122.107 66.0561L-120.798 65.4035C-119.728 67.5511 -118.63 69.6828 -117.505 71.7981L-118.797 72.4851C-117.665 74.615 -116.505 76.7282 -115.318 78.8245L-114.045 78.1038C-112.863 80.1913 -111.655 82.2618 -110.421 84.3149L-111.675 85.0689C-110.432 87.1361 -109.162 89.1858 -107.867 91.2174L-106.633 90.4307C-105.344 92.4527 -104.028 94.4567 -102.688 96.4424L-103.9 97.2612C-102.551 99.2602 -101.175 101.241 -99.7749 103.202L-98.584 102.352C-97.1906 104.303 -95.7722 106.236 -94.3291 108.149L-95.4973 109.03C-94.0451 110.955 -92.5682 112.861 -91.0669 114.746L-89.9221 113.835C-88.4286 115.711 -86.911 117.567 -85.3696 119.403L-86.4902 120.344C-84.9399 122.19 -83.3658 124.016 -81.7682 125.821L-80.6725 124.851C-79.0833 126.646 -77.4708 128.421 -75.8356 130.174L-76.9056 131.172C-75.2615 132.935 -73.5945 134.676 -71.9051 136.395L-70.8613 135.37C-69.181 137.08 -67.4784 138.768 -65.7538 140.434L-66.7705 141.487C-65.0371 143.161 -63.2817 144.814 -61.5049 146.443L-60.5159 145.365C-58.7492 146.985 -56.9612 148.582 -55.1523 150.156L-56.1129 151.26C-54.2948 152.842 -52.4557 154.401 -50.596 155.936L-49.6644 154.808C-47.8164 156.334 -45.948 157.836 -44.0597 159.314L-44.9616 160.466C-43.0637 161.952 -41.1458 163.413 -39.2083 164.85L-38.3367 163.675C-36.4123 165.102 -34.4685 166.504 -32.5058 167.882L-33.3466 169.08C-31.3744 170.464 -29.3831 171.824 -27.3734 173.158L-26.5641 171.939C-24.5681 173.264 -22.5538 174.564 -20.5215 175.838L-21.2988 177.078C-19.2577 178.357 -17.1986 179.611 -15.122 180.839L-14.3773 179.579C-12.315 180.798 -10.2354 181.991 -8.13876 183.158L-8.85028 184.437C-6.74594 185.608 -4.62466 186.752 -2.48688 187.87L-1.80899 186.573C0.314331 187.683 2.45401 188.766 4.60956 189.822L3.96582 191.136C6.12753 192.195 8.30515 193.227 10.4982 194.231L11.1074 192.901C13.2862 193.898 15.4803 194.868 17.6893 195.811L17.1152 197.157C19.3282 198.101 21.5561 199.017 23.7984 199.905L24.3371 198.544C26.5656 199.427 28.8085 200.281 31.0652 201.107L30.5623 202.481C32.8204 203.307 35.0923 204.105 37.3775 204.874L37.8442 203.487C40.1158 204.251 42.4007 204.987 44.6985 205.694L44.2683 207.092C46.5658 207.799 48.876 208.477 51.1985 209.125L51.5919 207.716C53.8995 208.36 56.2194 208.975 58.5511 209.56L58.1948 210.979C60.526 211.564 62.869 212.12 65.2234 212.646L65.5425 211.218C67.8796 211.741 70.228 212.233 72.5871 212.696L72.3055 214.132C74.6641 214.595 77.0335 215.028 79.4133 215.43L79.6574 213.988C82.0175 214.387 84.3878 214.756 86.768 215.096L86.5615 216.544C88.941 216.883 91.3304 217.193 93.7291 217.471L93.8979 216.018C96.2744 216.294 98.6602 216.54 101.055 216.755L100.924 218.213C103.318 218.428 105.72 218.613 108.131 218.768L108.225 217.308C110.611 217.46 113.006 217.583 115.409 217.675L115.353 219.137C117.755 219.23 120.164 219.291 122.581 219.322L122.6 217.859C123.802 217.874 125.006 217.882 126.212 217.882C127.418 217.882 128.622 217.874 129.824 217.859L129.843 219.322C132.26 219.291 134.669 219.23 137.071 219.137L137.015 217.675C139.418 217.583 141.812 217.46 144.199 217.308L144.293 218.768C146.704 218.613 149.106 218.428 151.5 218.213L151.369 216.755C153.764 216.54 156.149 216.294 158.526 216.018L158.695 217.471C161.094 217.193 163.483 216.884 165.862 216.544L165.656 215.096C168.036 214.756 170.406 214.387 172.766 213.988L173.011 215.43C175.39 215.028 177.76 214.595 180.118 214.132L179.837 212.696C182.196 212.233 184.544 211.741 186.881 211.218L187.201 212.647C189.555 212.12 191.898 211.564 194.229 210.979L193.873 209.56C196.205 208.975 198.524 208.36 200.832 207.716L201.225 209.125C203.548 208.477 205.858 207.799 208.156 207.092L207.725 205.694C210.023 204.987 212.308 204.251 214.58 203.487L215.046 204.874C217.332 204.105 219.604 203.307 221.862 202.481L221.359 201.107C223.615 200.281 225.858 199.427 228.087 198.544L228.626 199.905C230.868 199.017 233.096 198.101 235.309 197.157L234.735 195.811C236.944 194.869 239.138 193.898 241.317 192.901L241.926 194.231C244.119 193.227 246.296 192.195 248.458 191.136L247.814 189.822C249.97 188.766 252.11 187.683 254.233 186.573L254.911 187.87C257.049 186.752 259.17 185.608 261.274 184.437L260.563 183.158C262.659 181.991 264.739 180.798 266.801 179.579L267.546 180.839C269.623 179.611 271.682 178.357 273.723 177.078L272.946 175.838C274.978 174.564 276.992 173.264 278.988 171.939L279.797 173.158C281.807 171.824 283.798 170.465 285.771 169.08L284.93 167.882C286.892 166.505 288.836 165.102 290.761 163.675L291.632 164.85C293.57 163.413 295.488 161.952 297.386 160.466L296.484 159.314C298.372 157.836 300.24 156.334 302.088 154.808L303.02 155.937C304.88 154.401 306.719 152.842 308.537 151.26L307.576 150.156C309.385 148.582 311.173 146.985 312.94 145.365L313.929 146.443C315.706 144.814 317.461 143.161 319.195 141.487L318.178 140.434C319.902 138.768 321.605 137.08 323.285 135.37L324.329 136.396C326.018 134.676 327.686 132.935 329.33 131.172L328.26 130.174C329.895 128.421 331.507 126.646 333.097 124.851L334.192 125.821C335.79 124.016 337.364 122.19 338.914 120.344L337.794 119.403C339.335 117.567 340.853 115.711 342.346 113.835L343.491 114.747C344.992 112.861 346.469 110.955 347.921 109.03L346.753 108.149C348.196 106.236 349.615 104.303 351.008 102.352L352.199 103.202C353.599 101.241 354.975 99.2603 356.324 97.2613L355.112 96.4425C356.452 94.4569 357.768 92.4528 359.057 90.4308L360.291 91.2176C361.586 89.1859 362.856 87.1363 364.099 85.0691L362.845 84.315C364.079 82.2619 365.287 80.1914 366.469 78.1039L367.742 78.8247C368.929 76.7284 370.089 74.6151 371.221 72.4852L369.929 71.7982C371.054 69.683 372.152 67.5513 373.222 65.4036L374.531 66.0562C375.605 63.9011 376.652 61.73 377.67 59.5434L376.344 58.9257C377.355 56.7537 378.339 54.5664 379.294 52.3641L380.637 52.9465C381.595 50.7387 382.524 48.516 383.426 46.2787L382.068 45.7321C382.963 43.5092 383.83 41.2719 384.668 39.0208L386.04 39.5312C386.879 37.2771 387.689 35.009 388.47 32.7275L387.085 32.2536C387.862 29.9858 388.609 27.7046 389.326 25.4104L390.723 25.8473C391.441 23.5534 392.129 21.2466 392.787 18.9274L391.38 18.5277C392.034 16.2227 392.659 13.9054 393.254 11.5762L394.671 11.9383C395.266 9.60959 395.831 7.26907 396.366 4.91714L394.939 4.5928C395.47 2.25742 395.97 -0.0892944 396.441 -2.44693L397.876 -2.16061C398.346 -4.51755 398.786 -6.88531 399.195 -9.26349L397.753 -9.51169C398.159 -11.8708 398.535 -14.2402 398.88 -16.6195L400.328 -16.4095C400.673 -18.7881 400.987 -21.1764 401.271 -23.5742L399.818 -23.7459C400.098 -26.1219 400.349 -28.5072 400.568 -30.9015L402.025 -30.7681C402.244 -33.1615 402.432 -35.5638 402.589 -37.9745L401.129 -38.0696C401.285 -40.4559 401.41 -42.8505 401.503 -45.2531L402.965 -45.1961C403.059 -47.5976 403.122 -50.007 403.153 -52.4239L401.69 -52.4429C401.706 -53.645 401.713 -54.849 401.713 -56.0548C401.713 -57.2606 401.706 -58.4645 401.69 -59.6666L403.153 -59.6856C403.122 -62.1025 403.059 -64.5118 402.965 -66.9133L401.503 -66.8563C401.41 -69.2589 401.285 -71.6535 401.129 -74.0398L402.589 -74.1349C402.432 -76.5457 402.244 -78.9479 402.025 -81.3413L400.568 -81.2079C400.349 -83.6022 400.098 -85.9875 399.818 -88.3635L401.271 -88.5352C400.987 -90.933 400.673 -93.3214 400.328 -95.6999L398.88 -95.49C398.535 -97.8693 398.159 -100.239 397.753 -102.598L399.195 -102.846C398.786 -105.224 398.346 -107.592 397.876 -109.949L396.441 -109.663C395.97 -112.02 395.47 -114.367 394.939 -116.702L396.366 -117.027C395.831 -119.379 395.266 -121.719 394.672 -124.048L393.254 -123.686C392.659 -126.015 392.034 -128.332 391.38 -130.637L392.787 -131.037C392.129 -133.356 391.441 -135.663 390.723 -137.957L389.326 -137.52C388.609 -139.814 387.862 -142.095 387.085 -144.363L388.47 -144.837C387.689 -147.118 386.879 -149.386 386.04 -151.641L384.668 -151.13C383.83 -153.381 382.964 -155.619 382.068 -157.841L383.426 -158.388C382.525 -160.625 381.595 -162.848 380.637 -165.056L379.295 -164.474C378.339 -166.676 377.355 -168.863 376.344 -171.035L377.67 -171.653C376.652 -173.839 375.605 -176.011 374.531 -178.166L373.222 -177.513C372.152 -179.661 371.054 -181.792 369.929 -183.908L371.221 -184.595C370.089 -186.725 368.929 -188.838 367.742 -190.934L366.469 -190.213C365.288 -192.301 364.079 -194.371 362.845 -196.424L364.099 -197.179C362.856 -199.246 361.586 -201.295 360.291 -203.327L359.057 -202.54C357.768 -204.562 356.452 -206.566 355.112 -208.552L356.324 -209.371C354.975 -211.37 353.599 -213.35 352.199 -215.312L351.008 -214.461C349.615 -216.413 348.196 -218.345 346.753 -220.258L347.921 -221.139C346.469 -223.065 344.992 -224.97 343.491 -226.856L342.346 -225.945C340.853 -227.821 339.335 -229.677 337.794 -231.512L338.914 -232.453C337.364 -234.3 335.79 -236.125 334.192 -237.93L333.097 -236.96C331.507 -238.756 329.895 -240.53 328.26 -242.284L329.33 -243.282C327.686 -245.044 326.019 -246.786 324.329 -248.505L323.285 -247.479C321.605 -249.19 319.902 -250.878 318.178 -252.544L319.195 -253.596C317.461 -255.271 315.706 -256.923 313.929 -258.553L312.94 -257.474C311.173 -259.094 309.385 -260.692 307.576 -262.266L308.537 -263.37C306.719 -264.952 304.88 -266.511 303.02 -268.046L302.088 -266.918C300.24 -268.443 298.372 -269.945 296.484 -271.423L297.386 -272.576C295.488 -274.061 293.57 -275.523 291.632 -276.959L290.761 -275.784C288.836 -277.211 286.893 -278.614 284.93 -279.992L285.771 -281.189C283.798 -282.574 281.807 -283.934 279.797 -285.268L278.988 -284.049C276.992 -285.374 274.978 -286.673 272.946 -287.947L273.723 -289.187C271.682 -290.467 269.623 -291.721 267.546 -292.948L266.801 -291.689C264.739 -292.908 262.659 -294.101 260.563 -295.268L261.274 -296.546C259.17 -297.717 257.049 -298.862 254.911 -299.979L254.233 -298.683C252.11 -299.792 249.97 -300.876 247.815 -301.932L248.458 -303.246C246.297 -304.305 244.119 -305.337 241.926 -306.341L241.317 -305.01C239.138 -306.008 236.944 -306.978 234.735 -307.92L235.309 -309.266C233.096 -310.21 230.868 -311.126 228.626 -312.014L228.087 -310.654C225.858 -311.536 223.616 -312.39 221.359 -313.216L221.862 -314.59C219.604 -315.417 217.332 -316.214 215.047 -316.983L214.58 -315.597C212.308 -316.361 210.023 -317.097 207.726 -317.803L208.156 -319.202C205.858 -319.909 203.548 -320.586 201.226 -321.234L200.832 -319.825C198.525 -320.469 196.205 -321.084 193.873 -321.67L194.229 -323.089C191.898 -323.674 189.555 -324.23 187.201 -324.756L186.882 -323.328C184.544 -323.85 182.196 -324.343 179.837 -324.806L180.119 -326.242C177.76 -326.704 175.391 -327.137 173.011 -327.54L172.767 -326.097C170.407 -326.496 168.036 -326.866 165.656 -327.205L165.863 -328.654C163.483 -328.993 161.094 -329.302 158.695 -329.581L158.526 -328.127C156.15 -328.403 153.764 -328.649 151.369 -328.865L151.5 -330.322C149.107 -330.538 146.704 -330.723 144.293 -330.877L144.199 -329.417C141.813 -329.57 139.418 -329.693 137.015 -329.785L137.071 -331.247C134.669 -331.339 132.26 -331.401 129.843 -331.432L129.824 -329.968C128.622 -329.984 127.418 -329.992 126.212 -329.992C125.006 -329.992 123.802 -329.984 122.6 -329.968L122.581 -331.432C120.164 -331.401 117.755 -331.339 115.353 -331.247L115.409 -329.785C113.006 -329.693 110.612 -329.57 108.225 -329.417L108.132 -330.877C105.72 -330.723 103.318 -330.538 100.924 -330.322L101.055 -328.865C98.6603 -328.649 96.2746 -328.403 93.8981 -328.127L93.7292 -329.581C91.3306 -329.302 88.9412 -328.993 86.5616 -328.654L86.7681 -327.205C84.388 -326.866 82.0177 -326.496 79.6576 -326.097L79.4135 -327.54C77.0337 -327.137 74.6643 -326.704 72.3056 -326.242L72.5873 -324.806C70.2281 -324.343 67.8797 -323.85 65.5426 -323.328L65.2235 -324.756C62.8692 -324.23 60.5262 -323.674 58.1949 -323.089L58.5512 -321.67C56.2195 -321.084 53.8997 -320.469 51.592 -319.825L51.1986 -321.234C48.8761 -320.586 46.5659 -319.909 44.2685 -319.202L44.6986 -317.803C42.4008 -317.097 40.1159 -316.361 37.8443 -315.597L37.3776 -316.983C35.0924 -316.214 32.8206 -315.417 30.5625 -314.59L31.0653 -313.216C28.8086 -312.39 26.5658 -311.536 24.3372 -310.654L23.7985 -312.014C21.5562 -311.126 19.3283 -310.21 17.1153 -309.266L17.6894 -307.92C15.4804 -306.978 13.2863 -306.008 11.1075 -305.01L10.4984 -306.341C8.30527 -305.337 6.12766 -304.305 3.96594 -303.246L4.60971 -301.932C2.45413 -300.876 0.314453 -299.793 -1.80887 -298.683L-2.48676 -299.979C-4.62454 -298.862 -6.74582 -297.717 -8.85016 -296.546L-8.13864 -295.268C-10.2352 -294.101 -12.3149 -292.908 -14.3772 -291.689L-15.1219 -292.948C-17.1985 -291.721 -19.2576 -290.467 -21.2987 -289.187L-20.5214 -287.947C-22.5537 -286.673 -24.568 -285.374 -26.564 -284.049L-27.3733 -285.268C-29.383 -283.934 -31.3742 -282.574 -33.3465 -281.19L-32.5057 -279.992C-34.4684 -278.614 -36.4122 -277.211 -38.3365 -275.784L-39.2082 -276.96C-41.1457 -275.523 -43.0636 -274.061 -44.9615 -272.576L-44.0596 -271.423C-45.9479 -269.945 -47.8163 -268.443 -49.6643 -266.918L-50.5959 -268.046C-52.4555 -266.511 -54.2946 -264.952 -56.1128 -263.37L-55.1522 -262.266C-56.9611 -260.692 -58.7491 -259.094 -60.5158 -257.474L-61.5048 -258.553C-63.2816 -256.923 -65.037 -255.271 -66.7704 -253.596L-65.7538 -252.544C-67.4783 -250.878 -69.1809 -249.19 -70.8612 -247.48L-71.9049 -248.505C-73.5944 -246.786 -75.2614 -245.044 -76.9055 -243.282L-75.8355 -242.284C-77.4707 -240.53 -79.0832 -238.756 -80.6724 -236.96L-81.7681 -237.93C-83.3657 -236.125 -84.9398 -234.3 -86.4901 -232.453L-85.3695 -231.512C-86.9109 -229.677 -88.4286 -227.821 -89.9221 -225.945L-91.0669 -226.856C-92.5681 -224.97 -94.045 -223.065 -95.4972 -221.14L-94.329 -220.258C-95.7721 -218.345 -97.1905 -216.413 -98.5839 -214.461L-99.7748 -215.312C-101.175 -213.35 -102.551 -211.37 -103.9 -209.371L-102.688 -208.552C-104.028 -206.566 -105.344 -204.562 -106.633 -202.54L-107.867 -203.327C-109.162 -201.296 -110.432 -199.246 -111.675 -197.179L-110.421 -196.425C-111.655 -194.371 -112.863 -192.301 -114.045 -190.213L-115.318 -190.934C-116.505 -188.838 -117.665 -186.725 -118.797 -184.595L-117.505 -183.908C-118.63 -181.793 -119.727 -179.661 -120.798 -177.513L-122.107 -178.166C-123.181 -176.011 -124.228 -173.84 -125.246 -171.653L-123.92 -171.035C-124.931 -168.863 -125.915 -166.676 -126.87 -164.474L-128.213 -165.056C-129.171 -162.848 -130.1 -160.626 -131.001 -158.388L-129.644 -157.842C-130.539 -155.619 -131.406 -153.382 -132.244 -151.13L-133.615 -151.641C-134.455 -149.387 -135.265 -147.119 -136.046 -144.837L-134.661 -144.363C-135.438 -142.095 -136.185 -139.814 -136.902 -137.52L-138.299 -137.957C-139.016 -135.663 -139.705 -133.356 -140.363 -131.037L-138.956 -130.637C-139.61 -128.332 -140.235 -126.015 -140.83 -123.686L-142.247 -124.048C-142.842 -121.719 -143.407 -119.379 -143.942 -117.027L-142.515 -116.702C-143.046 -114.367 -143.546 -112.02 -144.017 -109.663L-145.452 -109.949C-145.922 -107.592 -146.362 -105.224 -146.771 -102.846L-145.329 -102.598C-145.735 -100.239 -146.111 -97.8694 -146.456 -95.4901L-147.904 -95.7001C-148.249 -93.3215 -148.563 -90.9332 -148.847 -88.5354L-147.394 -88.3636C-147.674 -85.9877 -147.924 -83.6023 -148.144 -81.2081L-149.601 -81.3415C-149.82 -78.9481 -150.008 -76.5458 -150.165 -74.1351L-148.705 -74.0399C-148.861 -71.6537 -148.986 -69.259 -149.079 -66.8564L-150.541 -66.9135Z" stroke="#FAC300" stroke-width="2.92653" stroke-dasharray="7.27 7.27"/>
</g>
<ellipse cx="67.3036" cy="25.0961" rx="11.5678" ry="11.5024" fill="url(#paint1_linear_559_489)"/>
<ellipse cx="33.6522" cy="55.4207" rx="11.5678" ry="11.5024" fill="url(#paint2_linear_559_489)"/>
<ellipse cx="73.8252" cy="153.639" rx="11.6196" ry="11.554" fill="url(#paint3_linear_559_489)"/>
<ellipse cx="16.8779" cy="197.684" rx="11.6196" ry="11.554" fill="url(#paint4_linear_559_489)"/>
<ellipse cx="64.9556" cy="273.685" rx="11.6196" ry="11.554" fill="url(#paint5_linear_559_489)"/>
<ellipse cx="238.929" cy="271.519" rx="11.6196" ry="11.554" fill="url(#paint6_linear_559_489)"/>
<ellipse cx="206.725" cy="115.441" rx="11.6196" ry="11.554" fill="url(#paint7_linear_559_489)"/>
<ellipse cx="237.476" cy="194.003" rx="11.6196" ry="11.554" fill="url(#paint8_linear_559_489)"/>
<ellipse cx="132.826" cy="218.082" rx="11.6196" ry="11.554" fill="url(#paint9_linear_559_489)"/>
<ellipse cx="61.0786" cy="209.341" rx="11.6196" ry="11.554" fill="url(#paint10_linear_559_489)"/>
<ellipse cx="151.055" cy="59.9362" rx="11.6196" ry="11.554" fill="url(#paint11_linear_559_489)"/>
<ellipse cx="231.355" cy="24.0504" rx="11.5678" ry="11.5024" fill="url(#paint12_linear_559_489)"/>
<g filter="url(#filter0_d_559_489)">
<rect x="286.058" y="122.911" width="39.9425" height="39.7168" rx="19.8584" fill="white"/>
<path d="M316.789 136.457C317.623 138.017 318.416 140.651 316.723 143.597C311.894 152.005 303.356 152.462 298.92 152.033C297.528 151.897 296.228 151.459 295.077 150.854C291.431 148.933 289.272 145.329 290.315 144.477C291.732 143.319 300.223 146.564 306.529 142.889C310.943 140.317 312.411 136.757 312.769 133.808C312.769 133.805 312.769 133.805 312.769 133.805C312.88 132.903 312.883 132.06 312.836 131.319L315.039 131.211C315.302 133.048 315.911 134.814 316.789 136.457Z" fill="#FAC923"/>
<path d="M303.258 145.891C303.144 145.897 303.039 145.823 303.011 145.712C302.979 145.585 303.058 145.459 303.188 145.425C304.498 145.107 305.661 144.646 306.743 144.013C306.857 143.949 307.006 143.983 307.076 144.094C307.145 144.205 307.107 144.35 306.993 144.418C305.868 145.073 304.663 145.551 303.306 145.882C303.29 145.888 303.274 145.891 303.258 145.891Z" fill="white" stroke="white" stroke-width="0.6079" stroke-miterlimit="10"/>
<path d="M299.798 146.373C299.665 146.379 299.551 146.28 299.545 146.15C299.538 146.021 299.64 145.91 299.773 145.903C300.369 145.873 300.956 145.82 301.51 145.743C301.644 145.727 301.764 145.814 301.783 145.944C301.802 146.073 301.71 146.191 301.577 146.209C301.01 146.286 300.41 146.342 299.798 146.373Z" fill="white" stroke="white" stroke-width="0.6079" stroke-miterlimit="10"/>
<path d="M298.436 146.4C298.433 146.4 298.426 146.4 298.423 146.4C296.72 146.391 295.097 146.224 293.794 146.092C293.661 146.079 293.562 145.962 293.578 145.832C293.591 145.703 293.712 145.607 293.845 145.622C295.138 145.755 296.746 145.922 298.426 145.928C298.559 145.928 298.667 146.036 298.667 146.166C298.664 146.292 298.562 146.394 298.436 146.4Z" fill="white" stroke="white" stroke-width="0.6079" stroke-miterlimit="10"/>
<path d="M316.726 143.596C311.894 152.002 303.355 152.459 298.92 152.033C295.949 151.746 293.406 150.069 291.814 148.346C293.263 149.383 295.061 150.202 297.052 150.393C301.488 150.819 310.029 150.362 314.858 141.954C316.551 139.011 315.759 136.374 314.925 134.814C314.326 133.69 313.85 132.507 313.527 131.284L315.045 131.207C315.302 133.042 315.914 134.808 316.792 136.454C317.623 138.019 318.416 140.65 316.726 143.596Z" fill="#FAC923"/>
<path d="M316.789 136.457C317.623 138.017 318.416 140.651 316.723 143.597C311.894 152.005 303.356 152.462 298.92 152.033C297.528 151.897 296.228 151.459 295.077 150.854C295.112 150.764 295.156 150.687 295.198 150.619C295.518 150.112 296.092 149.847 296.498 149.689C297.214 149.415 298.207 149.198 299.354 148.948C300.94 148.605 302.908 148.176 304.814 147.444C307.113 146.561 308.853 145.422 310.137 143.958C313.34 140.305 313.495 136.649 312.772 133.811C312.772 133.808 312.772 133.808 312.772 133.808C312.883 132.906 312.886 132.063 312.839 131.322L315.042 131.214C315.302 133.048 315.911 134.814 316.789 136.457Z" fill="#DC820E"/>
<path d="M315.115 130.856L313.064 131.646C314.288 134.58 315.236 139.592 310.873 144.569C306.102 150.011 296.989 149.572 296.025 151.11C295.09 152.601 300.972 156.872 306.653 155.6C310.997 154.627 318.942 151.539 320.765 142.071C321.406 138.755 319.789 136.504 318.489 135.284C317.119 133.999 315.962 132.514 315.115 130.856Z" fill="#FAC923"/>
<path d="M313.036 144.406C312.966 144.433 312.88 144.427 312.814 144.384C312.703 144.313 312.671 144.165 312.747 144.057C313.847 142.448 314.545 140.718 314.827 138.921C314.846 138.792 314.97 138.705 315.103 138.724C315.236 138.742 315.325 138.863 315.306 138.992C315.014 140.857 314.291 142.649 313.15 144.319C313.121 144.359 313.08 144.387 313.036 144.406Z" fill="white" stroke="white" stroke-width="0.6079" stroke-miterlimit="10"/>
<path d="M308.896 148.408C308.791 148.448 308.668 148.411 308.604 148.315C308.531 148.207 308.566 148.059 308.677 147.991C309.815 147.284 310.767 146.484 311.585 145.548C311.67 145.449 311.826 145.437 311.927 145.524C312.028 145.607 312.041 145.758 311.952 145.857C311.103 146.827 310.113 147.657 308.937 148.389C308.924 148.395 308.912 148.402 308.896 148.408Z" fill="white" stroke="white" stroke-width="0.6079" stroke-miterlimit="10"/>
<path d="M305.775 149.939C305.651 149.986 305.509 149.927 305.461 149.807C305.414 149.686 305.474 149.547 305.597 149.501C306.152 149.288 306.691 149.053 307.192 148.809C307.313 148.75 307.459 148.797 307.516 148.914C307.576 149.031 307.528 149.173 307.408 149.229C306.894 149.482 306.346 149.72 305.775 149.939Z" fill="white" stroke="white" stroke-width="0.6079" stroke-miterlimit="10"/>
<path d="M304.491 150.39C304.488 150.393 304.482 150.393 304.479 150.393C302.862 150.915 301.27 151.261 299.992 151.539C299.862 151.567 299.732 151.486 299.704 151.36C299.675 151.233 299.758 151.107 299.888 151.079C301.156 150.804 302.735 150.461 304.33 149.946C304.457 149.905 304.593 149.97 304.637 150.097C304.672 150.217 304.612 150.344 304.491 150.39Z" fill="white" stroke="white" stroke-width="0.6079" stroke-miterlimit="10"/>
<path d="M320.765 142.074C318.939 151.542 310.996 154.627 306.653 155.603C303.745 156.255 300.784 155.455 298.71 154.315C300.426 154.846 302.395 155.066 304.345 154.627C308.688 153.651 316.634 150.566 318.457 141.099C319.097 137.782 317.48 135.531 316.18 134.311C315.242 133.431 314.408 132.458 313.701 131.399L315.115 130.856C315.962 132.514 317.119 133.999 318.489 135.284C319.792 136.507 321.405 138.755 320.765 142.074Z" fill="#DC820E"/>
<path d="M312.857 132.742L312.119 130.29C311.995 129.88 312.217 129.444 312.629 129.293L313.637 128.922C314.072 128.762 314.554 128.975 314.722 129.395L315.711 131.908L312.857 132.742Z" fill="#603813"/>
<g clip-path="url(#clip0_559_489)">
<ellipse cx="326.368" cy="128.139" rx="7.76168" ry="7.71783" fill="white"/>
<path d="M326.369 137.061C321.414 137.061 317.397 133.067 317.397 128.14C317.397 123.212 321.414 119.218 326.369 119.218C331.324 119.218 335.341 123.212 335.341 128.14C335.341 133.067 331.324 137.061 326.369 137.061ZM325.474 131.708L331.817 125.4L330.549 124.138L325.474 129.185L322.936 126.661L321.668 127.923L325.474 131.708Z" fill="#1CC700"/>
</g>
</g>
<defs>
<filter id="filter0_d_559_489" x="271.425" y="105.728" width="80.3429" height="74.4592" filterUnits="userSpaceOnUse" color-interpolation-filters="sRGB">
<feFlood flood-opacity="0" result="BackgroundImageFix"/>
<feColorMatrix in="SourceAlpha" type="matrix" values="0 0 0 0 0 0 0 0 0 0 0 0 0 0 0 0 0 0 127 0" result="hardAlpha"/>
<feOffset dy="2.92653"/>
<feGaussianBlur stdDeviation="7.31631"/>
<feComposite in2="hardAlpha" operator="out"/>
<feColorMatrix type="matrix" values="0 0 0 0 0 0 0 0 0 0 0 0 0 0 0 0 0 0 0.25 0"/>
<feBlend mode="normal" in2="BackgroundImageFix" result="effect1_dropShadow_559_489"/>
<feBlend mode="normal" in="SourceGraphic" in2="effect1_dropShadow_559_489" result="shape"/>
</filter>
<radialGradient id="paint0_radial_559_489" cx="0" cy="0" r="1" gradientUnits="userSpaceOnUse" gradientTransform="translate(8.35159 275.49) rotate(-44.8377) scale(348.721 348.715)">
<stop stop-color="#211A00"/>
<stop offset="1" stop-color="#816100"/>
</radialGradient>
<linearGradient id="paint1_linear_559_489" x1="67.3036" y1="13.5937" x2="67.3036" y2="36.5985" gradientUnits="userSpaceOnUse">
<stop stop-color="#FAC923"/>
<stop offset="1" stop-color="#CF9C00"/>
</linearGradient>
<linearGradient id="paint2_linear_559_489" x1="33.6522" y1="43.9183" x2="33.6522" y2="66.9231" gradientUnits="userSpaceOnUse">
<stop stop-color="#FAC923"/>
<stop offset="1" stop-color="#CF9C00"/>
</linearGradient>
<linearGradient id="paint3_linear_559_489" x1="73.8252" y1="142.085" x2="73.8252" y2="165.193" gradientUnits="userSpaceOnUse">
<stop stop-color="#FAC923"/>
<stop offset="1" stop-color="#CF9C00"/>
</linearGradient>
<linearGradient id="paint4_linear_559_489" x1="16.8779" y1="186.13" x2="16.8779" y2="209.238" gradientUnits="userSpaceOnUse">
<stop stop-color="#FAC923"/>
<stop offset="1" stop-color="#CF9C00"/>
</linearGradient>
<linearGradient id="paint5_linear_559_489" x1="64.9556" y1="262.131" x2="64.9556" y2="285.239" gradientUnits="userSpaceOnUse">
<stop stop-color="#FAC923"/>
<stop offset="1" stop-color="#CF9C00"/>
</linearGradient>
<linearGradient id="paint6_linear_559_489" x1="238.929" y1="259.965" x2="238.929" y2="283.073" gradientUnits="userSpaceOnUse">
<stop stop-color="#FAC923"/>
<stop offset="1" stop-color="#CF9C00"/>
</linearGradient>
<linearGradient id="paint7_linear_559_489" x1="206.725" y1="103.887" x2="206.725" y2="126.995" gradientUnits="userSpaceOnUse">
<stop stop-color="#FAC923"/>
<stop offset="1" stop-color="#CF9C00"/>
</linearGradient>
<linearGradient id="paint8_linear_559_489" x1="237.476" y1="182.449" x2="237.476" y2="205.557" gradientUnits="userSpaceOnUse">
<stop stop-color="#FAC923"/>
<stop offset="1" stop-color="#CF9C00"/>
</linearGradient>
<linearGradient id="paint9_linear_559_489" x1="132.826" y1="206.528" x2="132.826" y2="229.636" gradientUnits="userSpaceOnUse">
<stop stop-color="#FAC923"/>
<stop offset="1" stop-color="#CF9C00"/>
</linearGradient>
<linearGradient id="paint10_linear_559_489" x1="61.0786" y1="197.787" x2="61.0786" y2="220.895" gradientUnits="userSpaceOnUse">
<stop stop-color="#FAC923"/>
<stop offset="1" stop-color="#CF9C00"/>
</linearGradient>
<linearGradient id="paint11_linear_559_489" x1="151.055" y1="48.3823" x2="151.055" y2="71.4902" gradientUnits="userSpaceOnUse">
<stop stop-color="#FAC923"/>
<stop offset="1" stop-color="#CF9C00"/>
</linearGradient>
<linearGradient id="paint12_linear_559_489" x1="231.355" y1="12.548" x2="231.355" y2="35.5528" gradientUnits="userSpaceOnUse">
<stop stop-color="#FAC923"/>
<stop offset="1" stop-color="#CF9C00"/>
</linearGradient>
<clipPath id="clip0_559_489">
<rect width="21.5324" height="21.4108" fill="white" transform="translate(315.603 117.434)"/>
</clipPath>
</defs>
</svg>
